<svg xmlns="http://www.w3.org/2000/svg" viewBox="0 0 15.9 15.9"><defs><style>.cls-1{fill:#ff0068;}</style></defs><g id="Calque_2" data-name="Calque 2"><g id="Calque_1-2" data-name="Calque 1"><path class="cls-1" d="M11.16,0H4.74A4.75,4.75,0,0,0,0,4.74v6.42A4.74,4.74,0,0,0,4.74,15.9h6.42a4.74,4.74,0,0,0,4.74-4.74V4.74A4.74,4.74,0,0,0,11.16,0ZM14.3,11.16a3.13,3.13,0,0,1-3.14,3.14H4.74A3.13,3.13,0,0,1,1.6,11.16V4.74A3.13,3.13,0,0,1,4.74,1.6h6.42A3.13,3.13,0,0,1,14.3,4.74v6.42Z"/><path class="cls-1" d="M8,3.84A4.11,4.11,0,1,0,12.06,8,4.11,4.11,0,0,0,8,3.84Zm0,6.62A2.51,2.51,0,1,1,10.46,8,2.51,2.51,0,0,1,8,10.46Z"/><circle class="cls-1" cx="12.07" cy="3.87" r="0.99"/></g></g></svg>