<svg xmlns="http://www.w3.org/2000/svg" viewBox="0 0 64.04 58.16"><defs><style>.cls-1{fill:#ff0068;}</style></defs><g id="Calque_2" data-name="Calque 2"><g id="Calque_1-2" data-name="Calque 1"><path class="cls-1" d="M62.58,5.75c-7.75,0-18.69.65-24.29,6.24-2.42,2.42-3.63,6.37-3.32,10.84a1.46,1.46,0,0,0,2.56.84A33.85,33.85,0,0,1,49,15a1.64,1.64,0,0,1,1.25,0,1.34,1.34,0,0,1,.79.7,1.42,1.42,0,0,1-.81,2l-.17.09H50C38.89,22.93,33.41,32.08,30.92,41.48c-1.81-11.77-5.65-18.7-9.27-23A27.73,27.73,0,0,0,15,12.31a13.16,13.16,0,0,1-1.46-1.11,1.44,1.44,0,0,1,0-2,1.48,1.48,0,0,1,2.12.06,7,7,0,0,0,.72.52l.26.18a30.18,30.18,0,0,1,9.5,9.88,1.45,1.45,0,0,0,2.67-.47c.76-3.87.42-9.63-3-13.08C20.15.65,9.2,0,1.45,0A1.45,1.45,0,0,0,0,1.45c0,7.75.65,18.7,6.24,24.3,2.33,2.33,5.93,3.38,9.5,3.38a16.21,16.21,0,0,0,8-2c3,6.19,5.37,15.43,5.37,29.57a1.46,1.46,0,1,0,2.91,0c0-7.88,1.35-17.35,6.38-25.15,2,2,5.48,3.22,9.33,3.34h.57a13.41,13.41,0,0,0,9.52-3.4C63.39,25.9,64,15,64,7.2A1.45,1.45,0,0,0,62.58,5.75Z"/></g></g></svg>