<svg xmlns="http://www.w3.org/2000/svg" viewBox="0 0 52.19 40.29"><defs><style>.cls-1{fill:#ff0068;}</style></defs><g id="Calque_2" data-name="Calque 2"><g id="Calque_1-2" data-name="Calque 1"><path class="cls-1" d="M42,0A10.07,10.07,0,0,1,52.19,10.23c0,6.4-4.61,10.23-10.23,10.23A9.79,9.79,0,0,1,36,18.35a10.32,10.32,0,0,0-.46,3.36c0,6.24,5.62,13,12.18,15.69l-1.49,2.89C34.93,35,29.78,26,29.78,15.62A20.38,20.38,0,0,1,32.51,5.08,10.43,10.43,0,0,1,42,0Z"/><path class="cls-1" d="M12.18,0A10.07,10.07,0,0,1,22.41,10.23c0,6.4-4.61,10.23-10.23,10.23a9.79,9.79,0,0,1-5.93-2.11,10,10,0,0,0-.47,3.36C5.78,28,11.4,34.67,18,37.4l-1.48,2.89C5.15,35,0,26,0,15.62A20.38,20.38,0,0,1,2.73,5.08,10.44,10.44,0,0,1,12.18,0Z"/></g></g></svg>