<svg xmlns="http://www.w3.org/2000/svg" viewBox="0 0 11.42 12.46"><defs><style>.cls-1{fill:#ff0068;}</style></defs><g id="Calque_2" data-name="Calque 2"><g id="Calque_1-2" data-name="Calque 1"><path class="cls-1" d="M11,2.08A1.69,1.69,0,1,1,9.34.39,1.68,1.68,0,0,1,11,2.08"/><path class="cls-1" d="M9.34,4.15a2.08,2.08,0,1,1,2.08-2.07A2.07,2.07,0,0,1,9.34,4.15m0-3.37a1.3,1.3,0,1,0,1.3,1.3A1.3,1.3,0,0,0,9.34.78"/><path class="cls-1" d="M11,10.38A1.69,1.69,0,1,1,9.34,8.69,1.69,1.69,0,0,1,11,10.38"/><path class="cls-1" d="M9.34,12.46a2.08,2.08,0,1,1,2.08-2.08,2.08,2.08,0,0,1-2.08,2.08m0-3.38a1.3,1.3,0,1,0,1.3,1.3,1.3,1.3,0,0,0-1.3-1.3"/><path class="cls-1" d="M3.76,6.23A1.69,1.69,0,1,1,2.08,4.54,1.69,1.69,0,0,1,3.76,6.23"/><path class="cls-1" d="M2.08,8.31A2.08,2.08,0,1,1,4.15,6.23,2.08,2.08,0,0,1,2.08,8.31m0-3.38a1.3,1.3,0,1,0,1.29,1.3,1.3,1.3,0,0,0-1.29-1.3"/><path class="cls-1" d="M3.3,6a.52.52,0,0,1-.45-.26A.53.53,0,0,1,3,5L7.86,2.26a.52.52,0,0,1,.71.2.53.53,0,0,1-.19.71L3.56,5.91A.48.48,0,0,1,3.3,6"/><path class="cls-1" d="M8.12,10.26a.48.48,0,0,1-.26-.07L3,7.45a.53.53,0,0,1-.19-.71.51.51,0,0,1,.71-.19L8.38,9.29a.53.53,0,0,1,.19.71.52.52,0,0,1-.45.26"/></g></g></svg>