<svg xmlns="http://www.w3.org/2000/svg" viewBox="0 0 15.9 15.9"><defs><style>.cls-1{fill:#ff0068;}</style></defs><g id="Calque_2" data-name="Calque 2"><g id="Calque_1-2" data-name="Calque 1"><path class="cls-1" d="M8,0a8,8,0,1,0,8,8A8,8,0,0,0,8,0Zm3.92,6.7c0,.08,0,.16,0,.24a5.38,5.38,0,0,1-5.41,5.41,5.45,5.45,0,0,1-2.91-.85l.45,0a3.81,3.81,0,0,0,2.36-.81A1.91,1.91,0,0,1,4.6,9.39a2,2,0,0,0,.35,0,2,2,0,0,0,.5-.06A1.91,1.91,0,0,1,3.93,7.49v0a1.94,1.94,0,0,0,.86.24,1.91,1.91,0,0,1-.85-1.58,1.94,1.94,0,0,1,.26-1,5.41,5.41,0,0,0,3.92,2,2.12,2.12,0,0,1,0-.44,1.9,1.9,0,0,1,3.29-1.3A3.56,3.56,0,0,0,12.56,5a1.86,1.86,0,0,1-.83,1,3.67,3.67,0,0,0,1.09-.3A4.06,4.06,0,0,1,11.87,6.7Z"/></g></g></svg>