<svg xmlns="http://www.w3.org/2000/svg" viewBox="0 0 458.85 155.26"><defs><style>.cls-1{fill:#fff;}</style></defs><g id="Calque_2" data-name="Calque 2"><g id="Calque_1-2" data-name="Calque 1"><path class="cls-1" d="M158.93,14.61c-19.68,0-47.48,1.64-61.69,15.84C91.09,36.61,88,46.63,88.81,58a3.7,3.7,0,0,0,6.5,2.14A85.91,85.91,0,0,1,124.53,38a4.19,4.19,0,0,1,3.17-.13,3.47,3.47,0,0,1,2,1.76c.79,1.66.54,3.84-2.06,5.06-.15.08-.28.17-.43.24s-.11,0-.16,0c-28.31,13.3-42.23,36.52-48.55,60.39C73.91,75.44,64.18,57.84,55,47A70,70,0,0,0,38,31.26a34.22,34.22,0,0,1-3.7-2.81,3.69,3.69,0,0,1,0-5.22,3.78,3.78,0,0,1,5.39.16,18.74,18.74,0,0,0,1.82,1.33l.65.44A76.41,76.41,0,0,1,66.31,50.27a3.69,3.69,0,0,0,6.78-1.2c1.93-9.84,1.07-24.45-7.71-33.23C51.17,1.65,23.37,0,3.69,0A3.69,3.69,0,0,0,0,3.69C0,23.37,1.65,51.17,15.85,65.38,21.77,71.31,30.9,74,40,74A41.3,41.3,0,0,0,60.21,68.9c7.58,15.71,13.64,39.19,13.64,75.1a3.69,3.69,0,1,0,7.38,0c0-20,3.43-44.08,16.2-63.87,5.12,5,13.93,8.17,23.69,8.46.49,0,1,0,1.45,0,9.92,0,18.68-3.1,24.2-8.63C161,65.77,162.62,38,162.62,18.29A3.67,3.67,0,0,0,158.93,14.61Z"/><path class="cls-1" d="M111.13,136.92c0-4.84,4.46-8.18,10.8-8.18a16.18,16.18,0,0,1,6.19,1.11V128.4c0-3.34-1.93-5.23-5.66-5.23a13.64,13.64,0,0,0-7.94,2.86l-2-4.11a18.65,18.65,0,0,1,10.55-3.25c7.26,0,11.52,3.73,11.52,10.46V137c0,1.35.48,1.89,1.74,1.93v5.52a16.75,16.75,0,0,1-3.1.34c-2.42-.05-3.68-1.21-4-3l-.15-1.4A11.52,11.52,0,0,1,119.8,145C114.86,145,111.13,141.52,111.13,136.92Zm15.93,1.16a2.45,2.45,0,0,0,1.06-1.84v-2.9a15.55,15.55,0,0,0-5.13-1c-3.34,0-5.71,1.7-5.71,4s1.89,3.82,4.36,3.82A7.32,7.32,0,0,0,127.06,138.08Z"/><path class="cls-1" d="M139.35,131.79c0-7.31,4.84-13.12,11.76-13.12a10.18,10.18,0,0,1,8.86,4.89v-4.45h5.66v24.15c0,7.5-5.9,12-14,12-5.57,0-9.2-1.93-11.91-5.27l3.53-3.44a10.85,10.85,0,0,0,8.38,3.83c4.06,0,7.55-2.18,7.55-7.12v-3.19a9.68,9.68,0,0,1-8.42,4.55C144,144.62,139.35,138.76,139.35,131.79Zm19.8,3.39v-6.05a7.46,7.46,0,0,0-6.58-4.94c-4,0-6.64,3.78-6.64,7.8a7.16,7.16,0,0,0,7,7.45A6.88,6.88,0,0,0,159.15,135.18Z"/><path class="cls-1" d="M169.89,131.94c0-7.22,5.13-13.27,13.41-13.27a12.71,12.71,0,0,1,13.21,13,13.25,13.25,0,0,1-.14,2.18h-19.6a6.65,6.65,0,0,0,6.72,6.34c2.57,0,5.18-1.35,6-3.43l5.56,1.55c-1.84,3.87-6.19,6.63-11.81,6.63C175.07,145,169.89,139,169.89,131.94Zm19.94-2.28a6.56,6.56,0,0,0-6.63-6.29,6.48,6.48,0,0,0-6.53,6.29Z"/><path class="cls-1" d="M224.05,144.47h-6.48V130.24c0-4.06-1.5-5.85-4-5.85s-5.61,2.22-6.58,5.27v14.81h-6.49V119.11h5.86v4.7c1.89-3.2,5.61-5.14,10.07-5.14,6.34,0,7.64,5,7.64,10Z"/><path class="cls-1" d="M241.43,118.67c5.52,0,9.54,2.62,11.47,6.49l-6.34,1.94a5.87,5.87,0,0,0-5.18-2.91c-3.72,0-6.63,3.1-6.63,7.6s3,7.65,6.63,7.65a5.9,5.9,0,0,0,5.28-3l6.34,1.93c-1.74,3.83-5.95,6.59-11.52,6.59a12.94,12.94,0,0,1-13.41-13.17C228.07,124.72,233.16,118.67,241.43,118.67Z"/><path class="cls-1" d="M255.37,131.94c0-7.22,5.13-13.27,13.41-13.27a12.71,12.71,0,0,1,13.21,13,14.46,14.46,0,0,1-.14,2.18H262.24a6.65,6.65,0,0,0,6.73,6.34c2.57,0,5.18-1.35,6-3.43l5.57,1.55c-1.84,3.87-6.2,6.63-11.81,6.63C260.55,145,255.37,139,255.37,131.94Zm19.94-2.28a6.56,6.56,0,0,0-6.63-6.29,6.48,6.48,0,0,0-6.53,6.29Z"/><path class="cls-1" d="M312.78,143.17a18.73,18.73,0,0,1-7.22,1.74c-3.58,0-6.58-1.74-6.58-6.25V124.09h-3.29v-5H299v-8.23h6.49v8.23h5.37v5h-5.37v12.4a2.23,2.23,0,0,0,2.47,2.46,9.39,9.39,0,0,0,3.53-.92Z"/><path class="cls-1" d="M331.12,124.72c-3.92,0-7.26,1.55-8.62,4.41v15.34H316V119.11h6v5.42c1.74-3.44,4.75-5.81,7.84-5.81a6.9,6.9,0,0,1,1.31.1Z"/><path class="cls-1" d="M332.52,131.84A13.29,13.29,0,1,1,345.83,145,12.83,12.83,0,0,1,332.52,131.84Zm13.31,7.6c3.73,0,6.64-3.2,6.64-7.65s-2.91-7.6-6.64-7.6-6.63,3.24-6.63,7.65S342.11,139.44,345.83,139.44Z"/><path class="cls-1" d="M369,140.07v4.4h-5.66V109.14h6.48v14.42a9.65,9.65,0,0,1,8.67-4.89c6.63,0,11.13,6,11.13,13.22S384.56,145,377.78,145A9.85,9.85,0,0,1,369,140.07Zm14-8.13c0-4.12-2.76-7.75-6.63-7.75-2.86,0-5.33,2.18-6.54,4.94v6.05a6.74,6.74,0,0,0,6.15,4.26C380.1,139.44,383,136,383,131.94Z"/><path class="cls-1" d="M394,115.58v-6.44h6.48v6.44Zm0,28.89V119.11h6.48v25.36Z"/><path class="cls-1" d="M404.69,131.94c0-7.22,5.13-13.27,13.41-13.27a12.71,12.71,0,0,1,13.21,13,14.46,14.46,0,0,1-.14,2.18H411.56a6.65,6.65,0,0,0,6.73,6.34c2.57,0,5.18-1.35,6-3.43l5.57,1.55c-1.84,3.87-6.2,6.63-11.81,6.63C409.87,145,404.69,139,404.69,131.94Zm19.94-2.28a6.57,6.57,0,0,0-6.63-6.29,6.48,6.48,0,0,0-6.53,6.29Z"/><path class="cls-1" d="M458.85,144.47h-6.48V130.24c0-4.06-1.5-5.85-4-5.85s-5.62,2.22-6.58,5.27v14.81h-6.49V119.11h5.86v4.7c1.89-3.2,5.61-5.14,10.07-5.14,6.34,0,7.64,5,7.64,10Z"/></g></g></svg>