<svg xmlns="http://www.w3.org/2000/svg" viewBox="0 0 180.69 61.14"><defs><style>.logo__cls-1{fill:#ff0068;}</style></defs><g id="svg_logo__Calque_2" data-name="Calque 2"><g id="svg_logo__Calque_1-2" data-name="Calque 1"><path class="logo__cls-1" d="M62.58,5.75c-7.75,0-18.69.65-24.29,6.24-2.42,2.42-3.63,6.37-3.32,10.84a1.46,1.46,0,0,0,2.56.84A33.85,33.85,0,0,1,49,15a1.64,1.64,0,0,1,1.25,0,1.34,1.34,0,0,1,.79.7,1.42,1.42,0,0,1-.81,2l-.17.09H50C38.89,22.93,33.41,32.08,30.92,41.48c-1.81-11.77-5.65-18.7-9.27-23A27.73,27.73,0,0,0,15,12.31a13.16,13.16,0,0,1-1.46-1.11,1.44,1.44,0,0,1,0-2,1.48,1.48,0,0,1,2.12.06,7,7,0,0,0,.72.52l.26.18a30.18,30.18,0,0,1,9.5,9.88,1.45,1.45,0,0,0,2.67-.47c.76-3.87.42-9.63-3-13.08C20.15.65,9.2,0,1.45,0A1.45,1.45,0,0,0,0,1.45c0,7.75.65,18.7,6.24,24.3,2.33,2.33,5.93,3.38,9.5,3.38a16.21,16.21,0,0,0,8-2c3,6.19,5.37,15.43,5.37,29.57a1.46,1.46,0,1,0,2.91,0c0-7.88,1.35-17.35,6.38-25.15,2,2,5.48,3.22,9.33,3.34h.57a13.41,13.41,0,0,0,9.52-3.4C63.39,25.9,64,15,64,7.2A1.45,1.45,0,0,0,62.58,5.75Z"/><path class="logo__cls-1" d="M43.76,53.92c0-1.91,1.76-3.22,4.25-3.22a6.25,6.25,0,0,1,2.44.44v-.58c0-1.31-.76-2.05-2.23-2.05a5.35,5.35,0,0,0-3.12,1.12L44.32,48a7.3,7.3,0,0,1,4.15-1.28c2.86,0,4.54,1.47,4.54,4.12V54c0,.53.19.74.68.76v2.17a6,6,0,0,1-1.22.13,1.42,1.42,0,0,1-1.58-1.18l-.06-.55a4.54,4.54,0,0,1-3.66,1.79A3.22,3.22,0,0,1,43.76,53.92Zm6.27.46a1,1,0,0,0,.42-.73V52.51a6.08,6.08,0,0,0-2-.38c-1.31,0-2.25.66-2.25,1.58a1.59,1.59,0,0,0,1.72,1.5A2.88,2.88,0,0,0,50,54.38Z"/><path class="logo__cls-1" d="M54.87,51.9c0-2.88,1.91-5.17,4.64-5.17A4,4,0,0,1,63,48.66V46.9h2.23v9.51c0,3-2.32,4.73-5.52,4.73A5.56,5.56,0,0,1,55,59.06l1.39-1.35a4.27,4.27,0,0,0,3.3,1.51,2.68,2.68,0,0,0,3-2.81V55.16A3.81,3.81,0,0,1,59.35,57C56.7,57,54.87,54.64,54.87,51.9Zm7.8,1.33V50.85a3,3,0,0,0-2.59-1.94,3,3,0,0,0,.15,6A2.69,2.69,0,0,0,62.67,53.23Z"/><path class="logo__cls-1" d="M66.9,52a5.08,5.08,0,0,1,5.28-5.23,5,5,0,0,1,5.2,5.13,6.75,6.75,0,0,1,0,.86H69.61a2.61,2.61,0,0,0,2.65,2.49,2.53,2.53,0,0,0,2.36-1.35l2.19.61a5,5,0,0,1-4.65,2.61A5,5,0,0,1,66.9,52Zm7.85-.9a2.58,2.58,0,0,0-2.61-2.48,2.55,2.55,0,0,0-2.57,2.48Z"/><path class="logo__cls-1" d="M88.23,56.89H85.67v-5.6c0-1.6-.59-2.31-1.58-2.31a3,3,0,0,0-2.59,2.08v5.83H79v-10h2.3v1.85a4.49,4.49,0,0,1,4-2c2.49,0,3,2,3,3.93Z"/><path class="logo__cls-1" d="M95.07,46.73a4.8,4.8,0,0,1,4.52,2.56l-2.5.76a2.32,2.32,0,0,0-2-1.14,2.73,2.73,0,0,0-2.61,3,2.78,2.78,0,0,0,2.61,3,2.33,2.33,0,0,0,2.08-1.18l2.5.76a4.79,4.79,0,0,1-4.54,2.59,5.18,5.18,0,1,1,0-10.35Z"/><path class="logo__cls-1" d="M100.56,52a5.08,5.08,0,0,1,5.28-5.23,5,5,0,0,1,5.2,5.13,6.75,6.75,0,0,1-.05.86h-7.72a2.61,2.61,0,0,0,2.65,2.49,2.53,2.53,0,0,0,2.36-1.35l2.19.61a5,5,0,0,1-4.65,2.61A5,5,0,0,1,100.56,52Zm7.85-.9a2.58,2.58,0,0,0-2.61-2.48,2.55,2.55,0,0,0-2.57,2.48Z"/><path class="logo__cls-1" d="M123.17,56.38a7.46,7.46,0,0,1-2.84.68,2.31,2.31,0,0,1-2.6-2.46V48.87h-1.29v-2h1.29V43.66h2.56V46.9h2.11v2h-2.11v4.88a.88.88,0,0,0,1,1,3.74,3.74,0,0,0,1.39-.36Z"/><path class="logo__cls-1" d="M130.39,49.12A3.59,3.59,0,0,0,127,50.85v6h-2.56v-10h2.35V49a3.74,3.74,0,0,1,3.09-2.29,2.63,2.63,0,0,1,.51,0Z"/><path class="logo__cls-1" d="M130.94,51.92a5.24,5.24,0,1,1,5.24,5.16A5,5,0,0,1,130.94,51.92Zm5.24,3a3,3,0,1,0-2.61-3A2.77,2.77,0,0,0,136.18,54.91Z"/><path class="logo__cls-1" d="M145.31,55.16v1.73h-2.23V43h2.56v5.68a3.79,3.79,0,0,1,3.41-1.93c2.61,0,4.38,2.39,4.38,5.21a4.84,4.84,0,0,1-4.67,5.14A3.89,3.89,0,0,1,145.31,55.16Zm5.51-3.2a2.84,2.84,0,0,0-2.61-3.05,3,3,0,0,0-2.57,1.94v2.38a2.66,2.66,0,0,0,2.42,1.68A2.82,2.82,0,0,0,150.82,52Z"/><path class="logo__cls-1" d="M155.15,45.51V43h2.55v2.53Zm0,11.38v-10h2.55v10Z"/><path class="logo__cls-1" d="M159.36,52a5.08,5.08,0,0,1,5.28-5.23,5,5,0,0,1,5.2,5.13,6.75,6.75,0,0,1-.05.86h-7.72a2.61,2.61,0,0,0,2.65,2.49,2.53,2.53,0,0,0,2.36-1.35l2.19.61a5,5,0,0,1-4.65,2.61A5,5,0,0,1,159.36,52Zm7.85-.9a2.58,2.58,0,0,0-2.61-2.48A2.55,2.55,0,0,0,162,51.06Z"/><path class="logo__cls-1" d="M180.69,56.89h-2.55v-5.6c0-1.6-.6-2.31-1.59-2.31A3,3,0,0,0,174,51.06v5.83h-2.55v-10h2.3v1.85a4.49,4.49,0,0,1,4-2c2.49,0,3,2,3,3.93Z"/></g></g></svg>