<svg xmlns="http://www.w3.org/2000/svg" viewBox="0 0 162.62 147.69"><defs><style>.logo-short-white__cls-1{fill:#fff;}</style></defs><g id="svg_logo-short-white__Calque_2" data-name="Calque 2"><g id="svg_logo-short-white__Calque_1-2" data-name="Calque 1"><path class="logo-short-white__cls-1" d="M158.93,14.61c-19.68,0-47.48,1.64-61.69,15.84C91.09,36.61,88,46.63,88.81,58a3.7,3.7,0,0,0,6.5,2.14A85.91,85.91,0,0,1,124.53,38a4.19,4.19,0,0,1,3.17-.13,3.47,3.47,0,0,1,2,1.76c.79,1.66.54,3.84-2.06,5.06-.15.08-.28.17-.43.24s-.11,0-.16,0c-28.31,13.3-42.23,36.52-48.55,60.39C73.91,75.44,64.18,57.84,55,47A70,70,0,0,0,38,31.26a34.22,34.22,0,0,1-3.7-2.81,3.69,3.69,0,0,1,0-5.22,3.78,3.78,0,0,1,5.39.16,18.74,18.74,0,0,0,1.82,1.33l.65.44A76.41,76.41,0,0,1,66.31,50.27a3.69,3.69,0,0,0,6.78-1.2c1.93-9.84,1.07-24.45-7.71-33.23C51.17,1.65,23.37,0,3.69,0A3.69,3.69,0,0,0,0,3.69C0,23.37,1.65,51.17,15.85,65.38,21.77,71.31,30.9,74,40,74A41.3,41.3,0,0,0,60.21,68.9c7.58,15.71,13.64,39.19,13.64,75.1a3.69,3.69,0,1,0,7.38,0c0-20,3.43-44.08,16.2-63.87,5.12,5,13.93,8.17,23.69,8.46.49,0,1,0,1.45,0,9.92,0,18.68-3.1,24.2-8.63C161,65.77,162.62,38,162.62,18.29A3.67,3.67,0,0,0,158.93,14.61Z"/></g></g></svg>