<svg xmlns="http://www.w3.org/2000/svg" viewBox="0 0 14.83 14.83"><defs><style>.mail__cls-1{fill:#ff0068;}</style></defs><g id="svg_mail__Calque_2" data-name="Calque 2"><g id="svg_mail__Calque_1-2" data-name="Calque 1"><path class="mail__cls-1" d="M12.66,2.17A7.42,7.42,0,0,0,2.17,12.66a7.41,7.41,0,0,0,8.76,1.28.44.44,0,0,0,.18-.6.43.43,0,0,0-.6-.18,6.53,6.53,0,1,1,3.43-5.75,6.23,6.23,0,0,1-.4,2.24,1.45,1.45,0,0,1-1.15.81,1.22,1.22,0,0,1-1.22-1.22V4.53a.45.45,0,0,0-.89,0V5a3.76,3.76,0,1,0,.06,4.77,2.13,2.13,0,0,0,2.05,1.59,2.32,2.32,0,0,0,1.95-1.3,7,7,0,0,0,.49-2.64A7.36,7.36,0,0,0,12.66,2.17ZM7.41,10.28a2.87,2.87,0,1,1,2.87-2.87A2.87,2.87,0,0,1,7.41,10.28Z"/></g></g></svg>