<svg id="svg-lights" aria-hidden="true" xmlns="http://www.w3.org/2000/svg" x="0" y="0" viewBox="0 0 641.7 537" xml:space="preserve"><style>.lights-st1{fill-rule:evenodd;clip-rule:evenodd;fill:#a7a9ac}.lights-st2{fill:#939598}.lights-st3,.lights-st4{fill-rule:evenodd;clip-rule:evenodd;fill:#fcd77e}.lights-st4{fill:#fcbf29}.lights-st5{fill:#cb9920}.lights-st6,.lights-st7{fill-rule:evenodd;clip-rule:evenodd;fill:#fcca51}.lights-st7{fill:#231f20}.lights-st8{fill:#58595b}.lights-st9{fill:#231f20}.lights-st10{fill-rule:evenodd;clip-rule:evenodd}.lights-st10,.lights-st11{fill:#fff}</style><g id="Calque_2_1_"><g id="Calque_1-2"><path fill="#f8af00" d="M0 0h641.7v537H0z"/><g id="lamp1"><path class="lights-st1" d="M147.3 262.7c.9-1.1 3.1-1.2 5.2-.2s3.3 2.9 2.9 4.3l4.6 2.3c1 .5 1.4 1.8.9 2.8l-.4.7.7.4c1.7.9 2.4 2.9 1.5 4.6l-9.2 18.2 1.2 2.3-2.3 4.6-32.2-16.3 1.6-3.2 2.6-.4 9.9-19.6c.9-1.7 2.9-2.4 4.6-1.5l.7.4.4-.7c.5-1 1.8-1.4 2.8-.9l4.5 2.2z"/><path class="lights-st2" d="M125.1 283.1l9.9-19.6c.3-.6.9-1.1 1.6-1.3.7-.2 1.4-.2 2 .1l22.2 11.2c1.3.7 1.9 2.3 1.2 3.6l-9.2 18.2-.2.4.2.4 1 2-1.8 3.6-30.8-15.6 1.1-2.2 2.2-.4.4-.1.2-.3zm15.6-21.4l19.5 9.9c.2-.3.2-.7.1-1-.1-.3-.3-.6-.6-.8l-17.2-8.7c-.3-.2-.7-.2-1-.1-.4.1-.7.4-.8.7zm20.8 10.5c.7-1.4.1-3.1-1.2-3.8l-4.1-2.1c0-.7-.2-1.3-.6-1.8-1.4-2.1-3.9-3.4-6.5-3.3-.7 0-1.3.3-1.8.6l-4.1-2.1c-.7-.3-1.4-.4-2.2-.2-.7.2-1.3.7-1.6 1.4-2.1-1-4.6-.2-5.6 1.9l-9.7 19.2-2.2.4-.4.1-.2.3-1.6 3.2-.3.7.7.3 32.2 16.3.7.3.3-.7 2.3-4.6.2-.3-.2-.4-1-2 9-17.9c.9-1.9 0-4.4-2.1-5.5zm-12.4-9.5l5.3 2.7-.1-.1c-.5-.8-1.3-1.5-2.2-1.9-.9-.5-1.9-.7-2.8-.6l-.2-.1z"/><path class="lights-st1" d="M158.8 286.1l-29.9-13.2c-.9-.4-1.9 0-2.2.9-.4.9 0 1.9.9 2.2l29.9 13.2c.9.4 1.9 0 2.2-.9.3-.9-.1-1.9-.9-2.2zm-5.3 10.3c.9.4 1.2 1.4.9 2.2-.4.9-1.4 1.2-2.2.9l-29.9-13.2c-.9-.4-1.2-1.4-.9-2.2.4-.9 1.4-1.2 2.2-.9l29.9 13.2zm2.7-5.2c.9.4 1.3 1.4.9 2.2-.4.9-1.4 1.3-2.2.9L125 281.1c-.9-.4-1.2-1.4-.9-2.2.4-.9 1.4-1.2 2.2-.9l29.9 13.2zm5.2-10.3c.8.4 1.2 1.4.9 2.2-.4.9-1.4 1.3-2.2.9l-29.9-13.2c-.9-.4-1.2-1.4-.9-2.2.4-.9 1.4-1.2 2.2-.9l29.9 13.2z"/><path class="lights-st2" d="M161.7 280.2L131.8 267c-1.2-.6-2.7 0-3.2 1.2s0 2.7 1.2 3.2l29.9 13.2c1.2.5 2.7 0 3.2-1.2s0-2.6-1.2-3.2zm-7.8 15.5c1.2.6 1.8 2 1.2 3.2-.3.6-.8 1.1-1.4 1.3-.6.2-1.3.2-1.9 0L122 287c-1.2-.6-1.8-2-1.2-3.2s2-1.8 3.2-1.2l29.9 13.1zm-30.6-11.8l29.9 13.2c.2.1.4.3.5.5.2.5-.1 1-.6 1.2-.2.1-.5.1-.7 0l-29.9-13.2c-.2-.1-.4-.3-.5-.5-.1-.2-.1-.5 0-.7.1-.2.3-.4.5-.5.3-.1.6-.1.8 0zm33.2 6.6c.6.3 1.1.7 1.3 1.4.2.6.2 1.3 0 1.9-.3.6-.7 1-1.3 1.3-.6.2-1.3.2-1.9 0l-30-13.2c-.6-.3-1-.8-1.3-1.4-.1-.4-.2-.8-.1-1.2h-.1l.3-.7c.3-.6.8-1.1 1.4-1.3.6-.2 1.3-.2 1.9 0l29.8 13.2zM126 278.7l29.9 13.2c.2.1.4.3.5.5.1.2.1.5 0 .7-.1.2-.3.4-.5.5-.2.1-.5.1-.7 0l-29.9-13.2c-.2-.1-.4-.3-.5-.5-.1-.2-.1-.5 0-.7l.1-.2c.1-.2.3-.3.5-.4.2 0 .4 0 .6.1zm33.1 6.7c.6.3 1.1.8 1.3 1.4.2.6.2 1.3 0 1.9-.3.6-.8 1.1-1.4 1.3-.6.3-1.3.3-1.9 0l-29.9-13.2c-1.2-.6-1.8-2-1.3-3.2.3-.6.8-1.1 1.4-1.3.6-.2 1.3-.2 1.9 0l29.9 13.1zm-30.5-11.8l29.9 13.2c.2.1.4.3.5.5.1.2.1.5 0 .7-.1.2-.3.4-.5.5-.2.1-.5.1-.7 0l-29.9-13.2c-.2-.1-.4-.3-.5-.5-.1-.2-.1-.5 0-.7.1-.2.3-.4.5-.5.2-.2.5-.2.7 0zm2.6-5.2l29.9 13.2c.2.1.4.3.5.5.1.2.1.5 0 .7-.1.2-.3.4-.5.5-.2.1-.5.1-.7 0l-30-13.2c-.2-.1-.4-.3-.5-.5-.2-.5 0-1 .5-1.2h.1c.2-.1.5-.1.7 0z"/><path class="lights-st10" d="M152.8 303.7c1.4 1.8 1.6 4.2.6 6.1-5.1 10.1-4.5 17.2-2.7 27.8 1.9 11.1 2.2 18.8-3.1 29.2-10.7 21.1-36.4 29.5-57.5 18.9C69 375 60.6 349.3 71.2 328.2c5.3-10.4 11.7-14.7 21.7-19.8 9.6-4.9 15.7-8.6 20.8-18.7 1-2 3.1-3.2 5.3-3.1l33.8 17.1z"/><path class="lights-st11" d="M137 295.9c-6.7 13.9-14.5 28.6-19.1 43.4-1.1-.6-2.3-1.1-3.6-1.2-.8-.8-1.7-1.5-2.7-2 9.4-12.1 16.5-27.6 23.3-41.2l-1.5-.7c-6.8 13.7-14 29.3-23.4 41.4l-.6-.1c-2-.4-4-.1-5.8.9-.2.1-.5.3-.7.5-.2.2-.3.4-.5.7-.3.6-.4 1.3-.2 2s.7 1.2 1.3 1.5c1.5.8 3.4.5 6.8-3.5.6.2 1.1.5 1.6.9-1 .3-1.9.8-2.6 1.6-.6.6-1 1.4-1.3 2.2-.3.8-.3 1.6-.2 2.4.5 1.9 2.4 3.1 4.3 2.7.2 0 .4-.1.6-.2.7-.4 1.4-.9 1.8-1.6.5-.7.8-1.5 1-2.4.2-1 .1-2-.2-3 .7.2 1.4.5 2 .9-1.3 5-.6 6.6.9 7.4.6.3 1.3.4 2 .2s1.2-.7 1.5-1.3c.1-.2.2-.5.2-.8v-.8c-.3-2-1.3-3.8-2.7-5.2l-.1-.1c4.6-14.9 12.4-29.7 19.2-43.7l-1.3-.9zm-17.9 51c-.8-.4-1.2-1.5-.3-4.8.9 1 1.6 2.3 1.8 3.7v.3c0 .1-.1.2-.1.3-.1.2-.3.4-.6.5-.3.2-.6.1-.8 0zm-8.4-5.9c.7-.8 1.7-1.3 2.8-1.3.6.9.8 2 .6 3-.1.6-.3 1.2-.7 1.7-.3.4-.7.8-1.2 1-1 .4-2.2-.1-2.6-1.2 0-.1 0-.1-.1-.2-.1-.5 0-1 .1-1.5.3-.5.7-1.1 1.1-1.5zm-6.4-3.4c1.3-.7 2.9-1 4.4-.7-2.3 2.7-3.6 3-4.4 2.5-.2-.1-.4-.3-.5-.6-.1-.3-.1-.5.1-.8 0-.1.1-.2.2-.2s.2-.1.2-.2z"/><path class="lights-st7" d="M153.5 313.1l-42.2-21.3 18.7-37c7.9-15.7 50.1 5.6 42.2 21.3l-18.7 37z"/><path transform="rotate(-63.179 158.12 289.4)" class="lights-st8" d="M139.8 288.6h36.5v1.6h-36.5z"/><path class="lights-st7" d="M158.5 255.2l-3.7-1.8L282.8.3h4.6z"/><path class="lights-st7" d="M160 256l-6.6-3.3 8.9-15.9 5.2 2.6z"/><path class="lights-st11" d="M80.9 404.5c-1.2-.6-2.7-.1-3.3 1.1L70 420.7c-.6 1.2-.1 2.7 1.1 3.3 1.2.6 2.7.1 3.3-1.1l7.6-15.1c.6-1.2.1-2.6-1.1-3.3zm32.1 6.8c-1.3.1-2.4 1.2-2.3 2.6l.9 16.8c.1 1.3 1.2 2.4 2.6 2.3 1.3-.1 2.4-1.2 2.3-2.6l-.9-16.9c-.1-1.3-1.3-2.3-2.6-2.2zM74.8 295c1.1-.7 1.4-2.2.7-3.4l-9.2-14.1c-.7-1.1-2.2-1.5-3.4-.7-1.1.7-1.4 2.3-.7 3.4l9.2 14.1c.8 1.1 2.3 1.5 3.4.7zM53 319.5c.6-1.2.1-2.7-1.1-3.3l-15.1-7.6c-1.2-.6-2.7-.1-3.3 1.1-.6 1.2-.1 2.7 1.1 3.3l15.1 7.6c1.2.5 2.7.1 3.3-1.1zm-6.7 32c-.1-1.3-1.2-2.4-2.6-2.3l-16.8.9c-1.3.1-2.4 1.2-2.3 2.6.1 1.3 1.2 2.4 2.6 2.3l16.9-.9c1.2-.1 2.3-1.2 2.2-2.6zm10.2 31.2c-.7-1.1-2.2-1.4-3.4-.7L39 391.2c-1.1.7-1.4 2.3-.7 3.4s2.2 1.4 3.4.7l14.1-9.2c1.1-.8 1.4-2.3.7-3.4z"/></g><g id="lamp2"><path class="lights-st1" d="M226 294.9c.7-1.2 2.9-1.7 5.1-1s3.7 2.4 3.5 3.8l4.8 1.6c1.1.4 1.7 1.5 1.3 2.6l-.2.7.7.2c1.8.6 2.8 2.6 2.2 4.4l-6.4 19.4 1.5 2.1-1.6 4.9-34.2-11.4 1.1-3.4 2.5-.8 6.9-20.8c.6-1.8 2.6-2.8 4.4-2.2l.7.2.2-.7c.4-1.1 1.5-1.7 2.6-1.3l4.9 1.7z"/><path class="lights-st2" d="M207 318.3l6.9-20.8c.2-.7.7-1.2 1.4-1.5.6-.3 1.4-.4 2.1-.2l23.7 7.9c1.4.5 2.2 2 1.7 3.4l-6.4 19.4-.1.4.2.3 1.3 1.8-1.3 3.8-32.8-10.9.8-2.3 2.1-.7.4-.1v-.5zm12.2-23.5l20.8 6.9c.1-.3.1-.7-.1-1-.2-.3-.4-.5-.8-.7l-18.3-6.1c-.3-.1-.7-.1-1 .1-.2.2-.4.5-.6.8zm22.2 7.4c.2-.7.2-1.5-.2-2.1-.3-.7-.9-1.2-1.6-1.4l-4.4-1.5c-.1-.6-.4-1.2-.9-1.7-1.7-1.9-4.3-2.8-6.9-2.3-.6.1-1.2.4-1.7.9l-4.4-1.5c-.7-.2-1.5-.2-2.1.2-.7.3-1.2.9-1.4 1.6-2.2-.7-4.6.5-5.3 2.7l-6.8 20.5-2.1.7-.4.1-.1.4-1.1 3.4-.2.7.7.2 34.2 11.4.7.2.2-.7 1.6-4.9.1-.4-.2-.3-1.3-1.8 6.3-19c.4-1.1.3-2.2-.2-3.2-.5-1.1-1.4-1.9-2.5-2.2zm-13.7-7.5l5.6 1.9-.1-.1c-1.4-1.5-3.4-2.1-5.4-1.8h-.1z"/><path class="lights-st1" d="M240.8 316.3l-31.5-8.7c-.9-.2-1.8.3-2.1 1.2-.2.9.3 1.8 1.2 2.1l31.5 8.7c.9.2 1.8-.3 2.1-1.2.2-.9-.3-1.8-1.2-2.1zm-3.7 11c.9.3 1.4 1.2 1.2 2.1-.2.9-1.2 1.4-2.1 1.2l-31.5-8.7c-.9-.3-1.4-1.2-1.2-2.1.3-.9 1.2-1.4 2.1-1.2l31.5 8.7zm1.8-5.5c.9.2 1.4 1.2 1.2 2.1-.3.9-1.2 1.4-2.1 1.2l-31.5-8.7c-.9-.2-1.4-1.2-1.2-2.1.3-.9 1.2-1.4 2.1-1.2l31.5 8.7zm3.7-11c.9.3 1.4 1.2 1.2 2.1-.3.9-1.2 1.4-2.1 1.2l-31.5-8.7c-.9-.3-1.4-1.2-1.2-2.1.3-.9 1.2-1.4 2.1-1.2l31.5 8.7z"/><path class="lights-st2" d="M242.8 310.1l-31.5-8.7c-1.3-.3-2.6.4-3 1.7-.3 1.3.4 2.6 1.7 3l31.5 8.7c1.3.3 2.6-.4 3-1.7.2-.6.1-1.3-.2-1.9-.4-.5-.9-1-1.5-1.1zm-5.5 16.5l-31.5-8.7c-.6-.2-1.3-.1-1.9.2-1.2.7-1.6 2.2-.9 3.4.3.6.9 1 1.5 1.2l31.5 8.7c1.3.4 2.7-.3 3.1-1.6s-.3-2.7-1.6-3.1c-.1-.1-.1-.1-.2-.1zm-31.9-7.2l31.5 8.7c.5.2.8.7.7 1.2-.1.2-.2.4-.4.6-.2.1-.5.2-.7.1l-31.5-8.7c-.2-.1-.4-.2-.6-.5-.1-.2-.2-.5-.1-.7.1-.6.6-.9 1.1-.7zm33.7 1.7c1.3.4 2.1 1.7 1.7 3-.4 1.3-1.7 2-3 1.7l-31.5-8.7c-.6-.2-1.1-.6-1.4-1.1-.2-.3-.3-.7-.3-1.1h-.1l.2-.7c.2-.6.6-1.2 1.1-1.5.6-.3 1.2-.4 1.9-.2l31.4 8.6zm-31.9-7.2l31.5 8.7c.2.1.4.2.6.4.1.2.2.5.1.7-.1.5-.6.8-1.1.7l-31.5-8.7c-.5-.1-.8-.6-.7-1.1l.1-.2c.1-.2.2-.3.4-.4.2-.2.4-.2.6-.1zm33.7 1.7c1.3.4 2.1 1.7 1.7 3-.2.6-.6 1.1-1.1 1.4-.6.3-1.2.4-1.9.2l-31.5-8.7c-1.3-.3-2.2-1.6-1.9-2.9.3-1.3 1.6-2.2 2.9-1.9.1 0 .1 0 .2.1l31.6 8.8zm-31.9-7.2l31.5 8.7c.2.1.4.2.6.5.1.2.2.5.1.7-.1.2-.2.4-.4.6-.2.1-.5.2-.7.1l-31.5-8.7c-.2-.1-.4-.2-.6-.5-.3-.5-.1-1 .4-1.3.1-.2.4-.2.6-.1zm1.8-5.6l31.5 8.7c.2.1.4.2.6.5.1.2.2.5.1.7-.1.5-.6.8-1.1.7l-31.5-8.7c-.2-.1-.4-.2-.6-.4-.1-.2-.2-.5-.1-.7.1-.2.2-.5.4-.6.3-.2.5-.2.7-.2z"/><path class="lights-st10" d="M237.4 334.6c1.6 1.5 2.2 3.9 1.5 6-3.6 10.7-2 17.7 1.4 27.9 3.5 10.7 4.9 18.2 1.2 29.3-7.5 22.4-31.7 34.6-54.1 27.1s-34.6-31.7-27.1-54.1c3.7-11.1 9.4-16.3 18.6-22.7 8.8-6.2 14.3-10.8 17.9-21.5.7-2.1 2.6-3.6 4.8-3.9l35.8 11.9z"/><path class="lights-st11" d="M220.6 329.3c-4.6 14.7-10.2 30.4-12.5 45.7-1.2-.5-2.5-.7-3.7-.6-.9-.7-1.9-1.3-3-1.6 7.5-13.4 12.3-29.8 17-44.2l-1.6-.5c-4.7 14.5-9.5 31-17.1 44.4h-.6c-2-.1-4 .5-5.6 1.7-.2.2-.4.3-.6.6-.2.2-.3.5-.4.7-.2.7-.2 1.4.1 2 .3.6.9 1.1 1.5 1.3 1.6.5 3.5 0 6.2-4.5.6.1 1.2.4 1.7.6-.9.5-1.7 1.1-2.3 2-.5.7-.8 1.5-1 2.4-.2.8-.1 1.7.2 2.4.4 1 1.2 1.7 2.2 2.1 1 .4 2.1.2 3-.3.7-.5 1.2-1.1 1.6-1.8.4-.8.6-1.6.6-2.5 0-1-.2-2-.7-2.9.7.1 1.4.3 2.1.6-.6 5.1.4 6.7 2 7.2.7.2 1.4.2 2-.1.6-.3 1.1-.9 1.3-1.5.1-.3.1-.5.1-.8 0-.3 0-.5-.1-.8-.6-1.9-1.8-3.6-3.5-4.7l-.1-.1c2.3-15.4 7.9-31.2 12.6-46l-1.4-.8zm-10.2 53c-.9-.3-1.4-1.3-1-4.7 1.1.9 1.9 2.1 2.3 3.4v.3c0 .1 0 .2-.1.3-.1.3-.3.5-.5.6-.2.1-.5.1-.7.1zm-9.2-4.6c.6-.9 1.5-1.5 2.6-1.7.7.8 1.1 1.8 1 2.9 0 .6-.2 1.2-.4 1.8-.2.5-.6.9-1 1.2-.5.3-1.1.4-1.6.2s-1-.6-1.2-1.1c-.2-.5-.2-1-.1-1.5.1-.7.3-1.3.7-1.8zm-6.7-2.4c1.2-.9 2.7-1.3 4.2-1.3-1.9 3-3.1 3.5-4 3.2-.3-.1-.5-.3-.6-.5-.1-.2-.1-.5-.1-.8 0-.1.1-.2.1-.3.2-.1.2-.2.4-.3z"/><path class="lights-st7" d="M239.4 343.8l-44.9-14.9 13.1-39.4c5.6-16.7 50.4-1.8 44.9 14.9l-13.1 39.4z"/><path transform="rotate(-71.603 240.55 319.686)" class="lights-st8" d="M222.3 318.9h36.5v1.6h-36.5z"/><path class="lights-st7" d="M236 285.9l-3.9-1.3L326.6.3h4.4z"/><path class="lights-st7" d="M237.5 286.4l-7-2.3L237 267l5.5 1.8z"/><path class="lights-st11" d="M181.1 444.9c-1.3-.4-2.7.3-3.1 1.5l-5.3 16c-.4 1.3.3 2.7 1.5 3.1 1.3.4 2.7-.3 3.1-1.5l5.3-16c.4-1.3-.3-2.6-1.5-3.1zm32.7 2c-1.3.3-2.2 1.6-1.9 2.9l3.4 16.5c.3 1.3 1.6 2.2 2.9 1.9 1.3-.3 2.2-1.5 1.9-2.9l-3.4-16.5c-.3-1.4-1.6-2.2-2.9-1.9zm29.3-14.7c-1 .9-1.1 2.4-.2 3.5l11.2 12.6c.9 1 2.4 1.1 3.5.2 1-.9 1.1-2.4.2-3.5l-11.2-12.6c-.9-1-2.5-1.1-3.5-.2zm18-27.4c-.4 1.3.3 2.7 1.5 3.1l16 5.3c1.3.4 2.7-.3 3.1-1.5.4-1.3-.3-2.7-1.5-3.1l-16-5.3c-1.3-.5-2.7.2-3.1 1.5zm1.9-32.7c.3 1.3 1.5 2.2 2.9 1.9h.1l16.5-3.4c1.3-.3 2.2-1.6 1.9-2.9-.3-1.3-1.6-2.2-2.9-1.9l-16.5 3.4c-1.3.3-2.2 1.6-2 2.9zm-109.4 54.8c-.9-1-2.4-1.1-3.4-.2l-12.6 11.2c-1 .9-1.1 2.4-.2 3.5.9 1 2.4 1.1 3.4.2l12.6-11.2c1.1-1 1.2-2.5.2-3.5z"/></g></g><g id="lamp3"><path class="lights-st1" d="M401.9 320.2c-.3-1.4-2.2-2.5-4.5-2.5s-4.2 1.1-4.5 2.5h-5.1c-1.1 0-2.1.9-2.1 2.1v.8h-.8c-1.9 0-3.4 1.5-3.5 3.5V347l-2.1 1.5v5.1h36.1V350l-2.1-1.5v-21.9c0-1.9-1.5-3.4-3.5-3.5h-.8v-.8c0-1.1-.9-2.1-2.1-2.1h-5z"/><path class="lights-st2" d="M412.5 348.5v-21.9c0-1.5-1.2-2.7-2.7-2.7h-24.9c-1.5 0-2.7 1.2-2.7 2.7v20.8l-.3.2-1.8 1.3v4h34.6v-2.5l-1.8-1.3-.3-.2v-.4h-.1zm-4.2-26.2c0-.3-.1-.7-.4-.9-.2-.2-.5-.4-.9-.4h-19.3c-.3 0-.7.1-.9.4-.2.2-.4.6-.4.9h21.9zm-23.4 0c0-1.6 1.3-2.8 2.8-2.8h4.6c.3-.6.8-1 1.4-1.4 2.2-1.3 5-1.3 7.2 0 .6.3 1 .8 1.4 1.4h4.7c.8 0 1.5.3 2 .8s.8 1.3.8 2c2.3 0 4.2 1.9 4.2 4.2V348l1.8 1.3.3.2v4.7h-37.6v-6.3l.3-.2 1.8-1.3v-20c.1-2.2 1.9-4 4.3-4.1zm15.4-2.8l-.1-.1c-1.8-.9-3.9-.9-5.6 0l-.1.1h5.8z"/><path class="lights-st1" d="M381.1 335.9l32.6 1.7c.9.1 1.7.9 1.6 1.8 0 .9-.8 1.7-1.8 1.6l-32.6-1.7c-.9-.1-1.7-.9-1.6-1.8.1-.9.9-1.6 1.8-1.6zm0 11.6l32.6 1.7c.9.1 1.7.9 1.6 1.8 0 .9-.8 1.7-1.8 1.6l-32.6-1.7c-.9-.1-1.7-.9-1.6-1.8.1-.9.9-1.6 1.8-1.6zm0-5.8l32.6 1.7c.9.1 1.7.9 1.6 1.8 0 .9-.8 1.7-1.8 1.6l-32.6-1.7c-.9-.1-1.7-.9-1.6-1.8.1-.9.9-1.6 1.8-1.6zm0-11.6l32.6 1.7c.9.1 1.7.9 1.6 1.8 0 .9-.8 1.7-1.8 1.6l-32.6-1.7c-.9-.1-1.7-.9-1.6-1.8.1-.9.9-1.6 1.8-1.6z"/><path class="lights-st2" d="M381.1 329.4l32.6 1.7c.7 0 1.3.3 1.7.8.9 1 .8 2.6-.2 3.5-.5.4-1.2.7-1.8.6l-32.6-1.7c-1.3-.1-2.4-1.2-2.3-2.5 0-.6.3-1.3.8-1.7.6-.5 1.2-.7 1.8-.7zm0 17.4l32.6 1.7c.7 0 1.3.3 1.7.8.9 1 .8 2.5-.2 3.4-.5.4-1.1.7-1.8.6l-32.6-1.7c-.7 0-1.3-.3-1.7-.8-.9-1-.8-2.6.2-3.5.6-.3 1.2-.6 1.8-.5zm32.6 3.2l-32.6-1.7c-.5 0-1 .4-1 .9 0 .3.1.5.2.7.2.2.4.3.6.3l32.6 1.7c.3 0 .5-.1.7-.2.2-.2.3-.4.3-.6 0-.2-.1-.5-.2-.7-.1-.3-.4-.4-.6-.4zm-32.5-9c-.7 0-1.3.2-1.8.6-.5.4-.8 1-.8 1.7 0 1.3 1 2.5 2.3 2.5l32.6 1.7c.6 0 1.3-.2 1.7-.6.3-.3.5-.6.7-1h.1v-.7c0-.6-.2-1.3-.6-1.8-.4-.5-1-.8-1.7-.8l-32.5-1.6zm32.5 3.2c.2 0 .5.1.6.3.1.2.2.3.2.5v.2c0 .2-.1.5-.3.6-.2.2-.4.3-.7.2l-32.6-1.8c-.2 0-.5-.1-.6-.3-.2-.2-.3-.4-.2-.7 0-.2.1-.5.3-.6.2-.2.4-.2.7-.2l32.6 1.8zm-32.5-9c-.7 0-1.3.2-1.8.6-.5.4-.8 1-.8 1.7 0 1.3 1 2.5 2.3 2.5l32.6 1.7c1.4.1 2.5-1 2.6-2.3 0-.6-.2-1.3-.6-1.8-.4-.5-1-.8-1.7-.8l-32.6-1.6zm32.5 3.2c.2 0 .5.1.6.3.2.2.3.4.2.7 0 .2-.1.5-.3.6-.2.2-.4.3-.7.2l-32.6-1.8c-.2 0-.5-.1-.6-.3-.2-.2-.3-.4-.2-.7 0-.2.1-.5.3-.6.2-.2.4-.2.7-.2l32.6 1.8zm0-5.8l-32.6-1.7c-.2 0-.5.1-.7.2-.2.2-.3.4-.3.6 0 .2.1.5.2.7.2.2.4.3.6.3l32.6 1.7c.2 0 .5-.1.7-.2.2-.2.3-.4.3-.6 0-.2-.1-.5-.2-.7-.1-.2-.4-.3-.6-.3z"/><path class="lights-st3" d="M378.5 354.4c-2 .9-3.3 3-3.3 5.2 0 11.3-3.7 17.4-10.1 26.1-6.7 9-10.4 15.8-10.4 27.4.4 23.6 19.8 42.5 43.4 42.1 23.1-.4 41.8-19 42.1-42.1 0-11.7-3.8-18.4-10.4-27.4-6.4-8.7-10.1-14.8-10.1-26.1 0-2.2-1.3-4.3-3.3-5.2h-37.9z"/><path class="lights-st4" d="M397.3 453.4c22.3 0 40.3-18 40.3-40.3 0-12.5-5-19.3-10.1-26.1-5.2-7.1-10.5-14.2-10.5-27.3 0-1.8-1.5-3.3-3.3-3.3h-32.9c-1.8 0-3.3 1.5-3.3 3.3 0 13.1-5.2 20.2-10.5 27.3-5 6.8-10.1 13.7-10.1 26.1.1 22.2 18.2 40.3 40.4 40.3z"/><path class="lights-st5" d="M396.1 354.6c-.3 15.4 0 32.1-2.5 47.3 1.3-.1 2.5.1 3.7.6 1.1-.4 2.2-.6 3.4-.6-2.9-15-2.2-32.1-2.2-47.3h1.6c-.1 15.3-.8 32.4 2.2 47.5l.5.1c1.9.5 3.6 1.7 4.8 3.4.7 1.1.6 2.5-.3 3.4-.5.5-1.2.8-1.9.8-1.7 0-3.3-1.1-4.5-6.2-.6 0-1.2 0-1.8.1.7.7 1.3 1.6 1.6 2.6.2.8.3 1.7.2 2.5-.1.8-.4 1.6-.9 2.2-1.3 1.5-3.5 1.7-5 .4-.2-.1-.3-.3-.4-.4-.5-.6-.8-1.4-.9-2.2-.1-.9 0-1.7.2-2.5.3-1 .8-1.9 1.6-2.6-.7-.1-1.4-.1-2.2-.1-1.1 5-2.5 6.2-4.2 6.2a2.732 2.732 0 01-2.7-2.7c0-.5.2-1.1.5-1.5 1.2-1.6 2.9-2.8 4.8-3.4h.1c2.6-15.3 2.3-32.1 2.6-47.6h1.7zm-7 53.5c.9 0 1.7-.8 2.4-4.1-1.3.5-2.5 1.4-3.3 2.5-.1.1-.1.2-.1.3v.3c0 .3.1.5.3.7.2.2.5.3.7.3zm10.1-1.4c.4-1-.2-2.2-1.3-2.5-1-.4-2.2.2-2.5 1.3-.1.4-.1.9 0 1.3-.2.6-.2 1.2-.2 1.9.1.5.3 1 .6 1.4.4.4.9.7 1.5.7s1.1-.2 1.5-.7c.3-.4.5-.9.6-1.4.1-.8 0-1.4-.2-2zm7.2-.2c-.9-1.3-2.1-2.2-3.6-2.6.9 3.4 1.8 4.2 2.8 4.2.3 0 .5-.1.7-.3.2-.2.3-.4.3-.7v-.3c-.1-.1-.1-.2-.2-.3z"/><path class="lights-st6" d="M381.4 439c3.6-3-9.8-19-13.4-16s9.8 19 13.4 16zM365.4 419.1c3.3-.1 3-14.9-.3-14.8s-3 14.9.3 14.8z"/><path class="lights-st7" d="M373.7 362.4H421v-41.5c0-17.6-47.3-17.6-47.3 0v41.5z"/><path class="lights-st8" d="M379.4 320.9h1.6v36.5h-1.6z"/><path class="lights-st9" d="M395.2.3h4.1v308.3h-4.1z"/><path class="lights-st7" d="M393.6 308.5h7.4l-.8-18.2h-5.8z"/></g><g id="lamp4"><path class="lights-st1" d="M490.6 320.2c-.3-1.4-2.2-2.5-4.5-2.5s-4.2 1.1-4.5 2.5h-5.1c-1.1 0-2.1.9-2.1 2.1v.8h-.8c-1.9 0-3.4 1.5-3.5 3.5V347l-2.1 1.5v5.1h36.1V350l-2.2-1.5v-21.9c0-1.9-1.5-3.4-3.5-3.5h-.8v-.8c0-1.1-.9-2.1-2.1-2.1h-4.9z"/><path class="lights-st2" d="M501.3 348.5v-21.9c0-1.5-1.2-2.7-2.7-2.7h-24.9c-1.5 0-2.7 1.2-2.7 2.7v20.8l-.3.2-1.8 1.3v4h34.6v-2.5l-1.8-1.3-.3-.2v-.4h-.1zm-4.3-26.2c0-.3-.1-.7-.4-.9-.2-.2-.6-.4-.9-.4h-19.2c-.3 0-.7.1-.9.4-.2.2-.4.6-.4.9H497zm-23.4 0c0-1.6 1.3-2.8 2.8-2.8h4.6c.3-.6.8-1 1.4-1.4 2.2-1.3 5-1.3 7.2 0 .6.3 1 .8 1.4 1.4h4.6c.8 0 1.5.3 2 .8s.8 1.2.8 2c2.3 0 4.2 1.9 4.2 4.2V348l1.8 1.3.3.2v4.7h-37.5v-6.3l.3-.2 1.8-1.3v-20c.1-2.2 2-4 4.3-4.1zm15.4-2.8l-.1-.1c-1.8-.9-3.9-.9-5.6 0l-.1.1h5.8z"/><path class="lights-st1" d="M469.9 335.9l32.6 1.7c.9.1 1.7.9 1.6 1.8 0 .9-.8 1.7-1.8 1.6l-32.6-1.7c-.9-.1-1.7-.9-1.6-1.8 0-.9.8-1.6 1.8-1.6zm0 11.6l32.6 1.7c.9.1 1.7.9 1.6 1.8 0 .9-.8 1.7-1.8 1.6l-32.6-1.7c-.9-.1-1.7-.9-1.6-1.8 0-.9.8-1.6 1.8-1.6zm0-5.8l32.6 1.7c.9.1 1.7.9 1.6 1.8 0 .9-.8 1.7-1.8 1.6l-32.6-1.7c-.9-.1-1.7-.9-1.6-1.8 0-.9.8-1.6 1.8-1.6zm0-11.6l32.6 1.7c.9.1 1.7.9 1.6 1.8 0 .9-.8 1.7-1.8 1.6l-32.6-1.7c-.9-.1-1.7-.9-1.6-1.8 0-.9.8-1.6 1.8-1.6z"/><path class="lights-st2" d="M469.9 329.4l32.6 1.7c.7 0 1.3.3 1.7.8.4.5.7 1.1.6 1.8-.1 1.4-1.2 2.4-2.6 2.3l-32.6-1.7c-.6 0-1.3-.3-1.7-.8-.4-.5-.7-1.1-.6-1.7.1-1.4 1.3-2.5 2.6-2.4zm0 17.4l32.6 1.7c.7 0 1.3.3 1.7.8.9 1 .8 2.6-.2 3.5-.5.4-1.2.7-1.8.6l-32.6-1.7c-1.4-.1-2.4-1.3-2.2-2.7.1-1.3 1.2-2.3 2.5-2.2zm32.6 3.2l-32.6-1.7c-.5 0-1 .4-1 .9 0 .3.1.5.2.7.2.2.4.3.6.3l32.6 1.7c.3 0 .5-.1.7-.2.2-.2.3-.4.3-.6 0-.2-.1-.5-.2-.7-.2-.3-.4-.4-.6-.4zm-32.6-9c-1.4-.1-2.5 1-2.6 2.3 0 1.3 1 2.5 2.3 2.5l32.6 1.7c1.1 0 2-.6 2.4-1.6h.1v-.7c0-.6-.2-1.3-.6-1.8-.4-.5-1-.8-1.7-.8l-32.5-1.6zm32.6 3.2c.2 0 .5.1.6.3.1.2.2.3.2.5v.2c0 .2-.1.5-.3.6-.2.2-.4.3-.7.2l-32.6-1.7c-.2 0-.5-.1-.6-.3-.2-.2-.2-.4-.2-.7 0-.2.1-.5.3-.6.2-.2.4-.2.7-.2l32.6 1.7zm-32.6-9c-1.4-.1-2.5 1-2.6 2.3 0 .6.2 1.3.6 1.7.4.5 1 .8 1.7.8l32.6 1.7c1.4.1 2.5-.9 2.6-2.3 0-.7-.2-1.3-.6-1.8-.4-.5-1-.8-1.7-.8l-32.6-1.6zm32.6 3.2c.2 0 .5.1.6.3.2.2.3.4.2.7 0 .2-.1.5-.3.6-.2.2-.4.3-.7.2l-32.6-1.7c-.2 0-.5-.1-.6-.3-.2-.2-.2-.4-.2-.7 0-.2.1-.5.3-.6.2-.2.4-.2.7-.2l32.6 1.7zm0-5.8l-32.6-1.7c-.2 0-.5.1-.7.2-.2.2-.3.4-.3.6 0 .2.1.5.2.7.2.2.4.3.6.3l32.6 1.7c.2 0 .5-.1.7-.2.2-.2.3-.4.3-.6 0-.2-.1-.5-.2-.7-.2-.2-.4-.3-.6-.3z"/><path class="lights-st3" d="M467.2 354.4c-2 .9-3.3 3-3.3 5.2 0 11.3-3.7 17.4-10.1 26.1-6.7 9-10.4 15.8-10.4 27.4 0 23.6 19.2 42.8 42.8 42.8 23.6 0 42.8-19.2 42.8-42.8 0-11.7-3.8-18.4-10.4-27.4-6.4-8.7-10.1-14.8-10.1-26.1 0-2.2-1.3-4.3-3.3-5.2h-38z"/><path class="lights-st4" d="M486.1 453.4c22.3 0 40.3-18 40.3-40.3 0-12.5-5-19.3-10.1-26.1-5.2-7.1-10.5-14.2-10.5-27.3 0-1.8-1.5-3.3-3.3-3.3h-32.9c-1.8 0-3.3 1.5-3.3 3.3 0 13.1-5.2 20.2-10.5 27.3-5 6.8-10.1 13.7-10.1 26.1.1 22.2 18.1 40.3 40.4 40.3z"/><path class="lights-st5" d="M484.9 354.6c-.3 15.4 0 32.1-2.5 47.3 1.3-.1 2.6.1 3.8.6 1.1-.4 2.2-.6 3.4-.6-2.9-15-2.2-32.1-2.2-47.3h1.6c-.1 15.3-.8 32.4 2.2 47.5l.5.1c1.9.5 3.6 1.7 4.8 3.4.7 1.1.6 2.5-.3 3.4-.5.5-1.2.8-1.9.8-1.7 0-3.3-1.1-4.5-6.2-.6 0-1.2 0-1.8.1.7.7 1.3 1.6 1.6 2.6.2.8.3 1.7.2 2.5-.1.8-.4 1.6-.9 2.2-.7.8-1.7 1.3-2.7 1.3-1.1 0-2.1-.4-2.7-1.3-.5-.6-.8-1.4-.9-2.2-.1-.9 0-1.7.2-2.5.3-1 .8-1.9 1.6-2.6-.7-.1-1.4-.1-2.2-.1-1.1 5-2.5 6.2-4.2 6.2-.7 0-1.4-.3-1.9-.8-.9-.9-1-2.3-.3-3.4 1.2-1.6 2.9-2.8 4.8-3.4h.2c2.6-15.3 2.3-32.1 2.6-47.6h1.5zm-7 53.5c.9 0 1.7-.8 2.4-4.1-1.3.5-2.4 1.4-3.2 2.5-.1.1-.1.2-.1.3v.3c0 .3.1.5.3.7.1.2.3.3.6.3zm10.1-1.4c.3-1-.2-2.2-1.3-2.5-1-.3-2.2.2-2.5 1.3-.1.4-.1.8 0 1.2-.2.6-.2 1.2-.1 1.9.1.5.3 1 .6 1.4.7.8 2 .9 2.8.1l.1-.1c.3-.4.5-.9.6-1.4 0-.7 0-1.3-.2-1.9zm7.2-.2c-.9-1.3-2.1-2.2-3.6-2.6.9 3.4 1.8 4.2 2.8 4.2.3 0 .5-.1.7-.3.2-.2.3-.4.3-.7v-.3c-.1-.1-.2-.2-.2-.3z"/><path class="lights-st6" d="M470.2 439c3.6-3-9.8-19.1-13.5-16s9.9 19 13.5 16zM454.2 419.1c3.3-.1 3-14.9-.3-14.8s-3 14.9.3 14.8z"/><path class="lights-st7" d="M462.5 362.4h47.3v-41.5c0-17.6-47.3-17.6-47.3 0v41.5z"/><path class="lights-st8" d="M468.1 320.9h1.6v36.5h-1.6z"/><path class="lights-st9" d="M484 .3h4.1v308.3H484z"/><path class="lights-st7" d="M482.4 308.5h7.4l-.8-18.2h-5.8z"/></g><g id="lamp5"><path class="lights-st1" d="M579.4 320.2c-.3-1.4-2.2-2.5-4.5-2.5s-4.2 1.1-4.5 2.5h-5.1c-1.1 0-2.1.9-2.1 2.1v.8h-.8c-1.9 0-3.4 1.5-3.4 3.5V347l-2.1 1.5v5.1H593V350l-2.1-1.5v-21.9c0-1.9-1.5-3.4-3.5-3.5h-.8v-.8c0-1.1-.9-2.1-2.1-2.1h-5.1z"/><path class="lights-st2" d="M590 348.5v-21.9c0-1.5-1.2-2.7-2.7-2.7h-24.9c-1.5 0-2.7 1.2-2.7 2.7v20.8l-.3.2-1.8 1.3v4h34.6v-2.5l-1.8-1.3-.3-.2-.1-.4zm-4.2-26.2c0-.3-.1-.7-.4-.9-.2-.2-.6-.4-.9-.4h-19.2c-.7 0-1.3.6-1.3 1.3h21.8zm-23.4 0c0-1.6 1.3-2.8 2.8-2.8h4.7c.3-.6.8-1 1.4-1.4 2.2-1.3 5-1.3 7.2 0 .6.3 1 .8 1.4 1.4h4.6c.8 0 1.5.3 2 .8s.8 1.2.8 2c2.3 0 4.2 1.9 4.2 4.2V348l1.8 1.3.3.2v4.7H556v-6.3l.3-.2 1.8-1.3v-20c.1-2.2 2-4 4.3-4.1zm15.4-2.8l-.1-.1c-1.8-.9-3.9-.9-5.6 0l-.1.1h5.8z"/><path class="lights-st1" d="M558.7 335.9l32.6 1.7c.9.1 1.7.9 1.6 1.8-.1.9-.9 1.6-1.8 1.6l-32.6-1.7c-.9-.1-1.7-.9-1.6-1.8 0-.9.8-1.7 1.8-1.6zm0 11.6l32.6 1.7c.9.1 1.7.9 1.6 1.8 0 .9-.8 1.7-1.8 1.6l-32.6-1.7c-.9-.1-1.7-.9-1.6-1.8 0-.9.8-1.6 1.8-1.6zm0-5.8l32.6 1.7c.9.1 1.7.9 1.6 1.8 0 .9-.8 1.7-1.8 1.6l-32.6-1.7c-.9-.1-1.7-.9-1.6-1.8 0-.9.8-1.6 1.8-1.6zm0-11.6l32.6 1.7c.9.1 1.7.9 1.6 1.8 0 .9-.8 1.7-1.8 1.6l-32.6-1.7c-.9-.1-1.7-.9-1.6-1.8 0-.9.8-1.6 1.8-1.6z"/><path class="lights-st2" d="M558.7 329.4l32.6 1.7c1.4.1 2.4 1.2 2.3 2.6-.1 1.4-1.2 2.4-2.6 2.3l-32.6-1.7c-.6 0-1.3-.3-1.7-.8-.4-.5-.7-1.1-.6-1.7 0-.6.3-1.3.8-1.7.5-.5 1.1-.7 1.8-.7zm0 17.4l32.6 1.7c.7 0 1.3.3 1.7.8.9 1 .8 2.6-.2 3.5-.5.4-1.1.7-1.8.6l-32.6-1.7c-.7 0-1.3-.3-1.7-.8-.4-.5-.7-1.1-.6-1.8 0-.7.3-1.3.8-1.7.5-.4 1.1-.7 1.8-.6zm32.5 3.2l-32.6-1.7c-.2 0-.5.1-.7.2-.2.2-.3.4-.3.6 0 .3.1.5.2.7.2.2.4.3.7.3l32.6 1.7c.3 0 .5-.1.7-.2.2-.2.3-.4.3-.6 0-.3-.1-.5-.2-.7-.2-.2-.4-.3-.7-.3zm-32.5-9c-.7 0-1.3.2-1.8.6-.5.4-.8 1-.8 1.7 0 .6.2 1.3.6 1.7.4.5 1 .8 1.7.8l32.6 1.7c.6 0 1.3-.2 1.7-.6.3-.3.5-.6.7-1h.1v-.7c0-.6-.2-1.3-.6-1.8-.4-.5-1-.8-1.7-.8l-32.5-1.6zm32.5 3.2c.2 0 .5.1.7.3.1.2.2.3.2.5v.2c0 .2-.1.5-.3.6-.2.2-.4.3-.7.2l-32.6-1.7c-.2 0-.5-.1-.6-.3-.2-.2-.2-.4-.2-.7 0-.5.5-.9 1-.9l32.5 1.8zm-32.5-9c-.7 0-1.3.2-1.8.6-.5.4-.8 1-.8 1.7 0 .6.2 1.3.6 1.7.4.5 1 .8 1.7.8l32.6 1.7c1.4.1 2.5-1 2.6-2.3 0-.7-.2-1.3-.6-1.8-.4-.5-1-.8-1.7-.8l-32.6-1.6zm32.5 3.2c.2 0 .5.1.7.3.2.2.3.4.2.7-.1.5-.5.9-1 .9l-32.6-1.7c-.2 0-.5-.1-.6-.3-.2-.2-.2-.4-.2-.7 0-.5.5-.9 1-.9l32.5 1.7zm0-5.8l-32.6-1.7c-.5 0-1 .4-1 .9 0 .2.1.5.2.7.2.2.4.3.6.3l32.6 1.7c.5 0 .9-.4 1-.9 0-.3-.1-.5-.2-.7-.1-.2-.3-.3-.6-.3z"/><path class="lights-st3" d="M556 354.4c-2 .9-3.3 3-3.3 5.2 0 11.3-3.7 17.4-10.1 26.1-6.7 9-10.4 15.8-10.4 27.4 0 23.6 19.2 42.8 42.8 42.8 23.6 0 42.8-19.2 42.8-42.8 0-11.7-3.8-18.4-10.4-27.4-6.4-8.7-10.1-14.8-10.1-26.1 0-2.2-1.3-4.3-3.3-5.2h-38z"/><path class="lights-st4" d="M574.9 453.4c22.3 0 40.3-18 40.3-40.3 0-12.5-5-19.3-10.1-26.1-5.2-7.1-10.5-14.2-10.5-27.3 0-1.8-1.5-3.3-3.3-3.3h-32.9c-1.8 0-3.3 1.5-3.3 3.3 0 13.1-5.2 20.2-10.5 27.3-5 6.8-10.1 13.7-10.1 26.1.1 22.2 18.1 40.3 40.4 40.3z"/><path class="lights-st5" d="M573.7 354.6c-.3 15.4 0 32.1-2.5 47.3 1.3-.1 2.6.1 3.8.6 1.1-.4 2.2-.6 3.3-.6-2.9-15-2.2-32.1-2.2-47.3h1.6c-.1 15.3-.7 32.4 2.2 47.5l.5.1c1.9.5 3.6 1.7 4.8 3.4.8 1 .6 2.5-.3 3.4-.5.5-1.2.8-1.9.8-1.7 0-3.3-1.1-4.5-6.2-.6 0-1.2 0-1.8.1.7.7 1.3 1.6 1.6 2.6.2.8.3 1.7.2 2.5-.1.8-.4 1.6-.9 2.2-.7.8-1.7 1.3-2.7 1.3-1.1 0-2.1-.4-2.7-1.3-.5-.7-.8-1.4-.9-2.2-.1-.9 0-1.7.2-2.5.3-1 .8-1.9 1.6-2.6-.7-.1-1.4-.1-2.2-.1-1.1 5-2.5 6.2-4.2 6.2-.7 0-1.4-.3-1.9-.8-.7-.7-1-1.7-.7-2.7.1-.3.2-.5.4-.7 1.2-1.6 2.8-2.8 4.8-3.4h.2c2.7-15.3 2.3-32.1 2.6-47.6h1.6zm-7 53.5c.9 0 1.7-.8 2.4-4.1-1.3.5-2.4 1.4-3.2 2.5-.1.1-.1.2-.1.3v.3c0 .3.1.5.3.7.1.2.3.3.6.3zm10.1-1.4c.3-1-.2-2.2-1.3-2.5-1-.3-2.2.2-2.5 1.3-.1.4-.1.8 0 1.2-.2.6-.2 1.2-.2 1.9.1.5.3 1 .6 1.4.7.8 2 .9 2.8.1l.1-.1c.3-.4.5-.9.6-1.4.1-.7.1-1.3-.1-1.9zm7.2-.2c-.9-1.3-2.1-2.2-3.6-2.6.9 3.4 1.8 4.2 2.8 4.2.3 0 .5-.1.7-.3.2-.2.3-.4.3-.7v-.3c-.1-.1-.1-.2-.2-.3z"/><path class="lights-st6" d="M559 439c3.6-3-9.8-19.1-13.5-16s9.9 19 13.5 16zM543 419.1c3.3-.1 3-14.9-.3-14.8s-3 14.9.3 14.8z"/><path class="lights-st7" d="M551.2 362.4h47.3v-41.5c0-17.6-47.3-17.6-47.3 0v41.5z"/><path class="lights-st8" d="M556.9 320.9h1.7v36.5h-1.7z"/><path class="lights-st9" d="M572.8.3h4.1v308.3h-4.1z"/><path class="lights-st7" d="M571.2 308.5h7.4l-.9-18.2H572z"/></g></g></svg>