<svg id="svg-saving" aria-hidden="true" xmlns="http://www.w3.org/2000/svg" xmlns:xlink="http://www.w3.org/1999/xlink" x="0" y="0" viewBox="0 0 720.9 737.7" xml:space="preserve"><style>.st2{fill:#d85409}.st4{fill:#fff}.st5{fill:#225a80}.st6{fill:#23608a}.st7{fill:#eb6619}.st8{fill:#003c5a}.st9{fill:#002d44}.st10{fill:#e3e0cc}.st11{fill:#6f6f6e}.st12{fill:#edeadd}.st13{fill:#868686}.st14{fill:#f6f5ee}</style><g id="Calque_2_1_"><g id="Calque_1-2"><path fill="#f8af00" d="M34.9 99.2h649.5v572.5H34.9z"/><g><defs><path id="SVGID_1_" d="M34 99.2h649.5v572.5H34z"/></defs><clipPath id="SVGID_2_"><use xlink:href="#SVGID_1_" overflow="visible"/></clipPath><g clip-path="url(#SVGID_2_)"><g id="arm1"><path class="st2" d="M275.6 233.5c-.8-.3-1.6-.7-2.3-1.3-3.5-2.8-21.2-22.2-25.5-27.5-6.4-7.9-8.4-10.4-11.6-15.3l1.1-9.1 14.9-13.4c2.3-2.4 3.5-1.3 5.7-1.1 24.3 2.1 32.3 11.1 34.7 13.8 2 2.3 10.4 11.9 14.4 18.1 3.4 4.8 4.2 13.4-2.2 17.8s-10.3 9.1-14.8 11.2-7.1 8.2-14.4 6.8z"/><path d="M384.7 164.6c50.6 32.1 65.6 99.1 33.5 149.6s-99.1 65.6-149.6 33.5-65.6-99-33.6-149.6c32.1-50.6 99.1-65.6 149.7-33.5zM276 224.1c-17.7 28-9.4 65 18.5 82.7 28 17.7 65 9.4 82.7-18.5 17.7-28 9.4-65-18.5-82.7-28-17.8-65-9.5-82.7 18.5z" fill="#e3e8ec"/><path class="st4" d="M380.4 171.4c46.8 29.7 60.7 91.7 31 138.5-29.7 46.8-91.7 60.7-138.5 31s-60.7-91.7-31-138.5c29.7-46.8 91.7-60.7 138.5-31zm-110.8 48.7c-19.9 31.5-10.6 73.1 20.9 93.1s73.1 10.6 93.1-20.9c19.9-31.5 10.6-73.1-20.8-93.1-31.5-19.9-73.2-10.6-93.2 20.9z"/><path class="st5" d="M351.8 201.8l20.1-44.2c-25.6-11.8-54.8-13.1-81.4-3.7l16.3 45.6c14.7-5.1 30.8-4.3 45 2.3zM224.5 292.7l45.6-16.3c-5.3-14.9-4.6-31.3 2.1-45.6l-44.1-20c-11.9 25.8-13.1 55.2-3.6 81.9zM381.3 280.7l44.2 20.1c11.6-25.7 12.7-54.8 3.2-81.3L383 235.8c5.2 14.6 4.6 30.7-1.7 44.9zM302 310.8L282 355c25.8 11.7 55.2 12.8 81.8 3.1l-16.4-45.7c-14.8 5.5-31.1 4.9-45.4-1.6z"/><path class="st6" d="M298.9 317.7l-13.6 30c23.9 10.8 51.1 11.9 75.8 2.9l-11.1-31c-16.6 6-35 5.4-51.1-1.9zM388.1 283.8l30 13.6c10.7-23.8 11.8-50.8 2.9-75.3l-31 11.1c5.9 16.5 5.3 34.6-1.9 50.6zM232.2 290l31-11.1c-6-16.7-5.1-35.1 2.4-51.1l-30-13.6c-11.1 23.8-12.3 51.1-3.4 75.8zM354.9 195l13.6-30c-23.7-10.9-50.7-12.1-75.3-3.4l11.1 31c16.5-5.8 34.7-5 50.6 2.4z"/><path class="st7" d="M236.1 189.4c-2.1-4.1-1.9-6.1-5.3-10.2l-10.9-9.9 24.8-27.1 5.5 5 22.9 2.8c3.6.2 7 .9 8.4 1.8l18.6 11.7c1.5 1.2 2.8 2.5 3.9 4l13.9 17.1c2.6 3.1 3 7.7-.3 10.3s-6.6 2.7-10.6-1.9c0 0-5.5-6.6-11.7-13.3-.8-.9-1.7-1.6-2.7-2.2l-6.3-4.1c-1.1-.8-11.6 6.2-29.3-3.5-2.5-1-13.7 4-20.9 19.5z"/><path class="st2" d="M286.4 173.3l6.3 4.1c1 .6 1.9 1.4 2.7 2.2 6.2 6.7 11.7 13.3 11.7 13.3 4 4.6 7.4 4.5 10.6 1.9 2.1-1.7 2.9-4.5 2-7-.5 3.5-5.5 6.6-8.1 4.2-2.1-2.4-13.5-14.7-13.5-14.7-.7-.8-1.6-1.5-2.6-2.1l-6.5-4.6c-.6-.6-1.4-.8-2.2-.6-2.1 1.1-12.9 4.1-20.7 3.4 12.3 3.8 19.4-.8 20.3-.1z"/><path transform="rotate(-47.631 230.176 153.793)" class="st4" d="M208.5 147.8h43.3v11.9h-43.3z"/><path transform="rotate(-47.631 155.157 85.544)" class="st8" d="M128-11.6h54.3v194.3H128z"/><path transform="rotate(-47.631 144.477 97.246)" class="st9" d="M133.2.1h22.6v194.3h-22.6z"/><path class="st7" d="M283.4 229.3l-13.9-18.1c-4.9-6.3-13.8 0-8.9 6.9l12.7 18.3c2.1 3.1 6.2 1.9 8.3.4 1.9-1.4 4-4.4 1.8-7.5z"/><path class="st2" d="M283.4 229.3l-13.9-18.1c-3-3.8-7.5-3-9.4-.1 2.6-1.7 6.3-1.7 8.1 1l13.5 19.2c.5 1 1.4 1.8 2.4 2.2.5-1.4.2-3-.7-4.2z"/><path class="st7" d="M295.6 223.7l-15.4-20.1c-5.4-7-15.3-.1-9.9 7.7l14.1 20.3c2.4 3.4 6.9 2.1 9.2.4 2.1-1.5 4.4-4.8 2-8.3z"/><path class="st2" d="M295.6 223.7l-15.4-20.1c-3.9-5-10.2-2.8-11.3 1.8 3.1-3.5 7.5-2.8 9.1-.5l16.2 22.4c.4.7 1.1 1.3 2 1.6.7-1.8.5-3.7-.6-5.2z"/><path class="st7" d="M308.8 219.6l-17.6-23.2c-5.6-7.2-15.8 0-10.2 7.9l16.2 23.4c2.4 3.5 7 2.1 9.5.4 2.3-1.5 4.6-4.9 2.1-8.5z"/><path class="st2" d="M280.1 196.9c3.5-2.7 7.5-.9 9.3 1.5 0 0 12.1 15.8 13.8 17.9 1.5 1.9 3.4 3.3 5.2 2.7l-17.1-22.5c-3.7-4.7-9.2-3.3-11.2.4z"/><path class="st7" d="M316 207.3l-15.5-20.1c-5.4-7-15.3-.1-9.9 7.7l14.1 20.3c2.4 3.4 6.9 2.1 9.2.4 2.1-1.5 4.4-4.9 2.1-8.3z"/></g><g id="arm2"><circle class="st7" cx="408.5" cy="422" r="5.8"/><path class="st7" d="M357.5 376.2c-.2-2.4-2.3-4.2-4.7-4s-4.2 2.3-4 4.7c.2 2.4 2.3 4.2 4.7 4 2.5-.1 4.3-2.3 4-4.7.1 0 0 0 0 0z"/><path class="st7" d="M356.9 422.8l-5.9.5-2.2-46.7 8.7-.7 5.2 46.4zM384.2 385.8c.5-2.4-1-4.7-3.3-5.2-2.4-.5-4.7 1-5.2 3.3-.5 2.4 1 4.7 3.3 5.2s4.7-1 5.2-3.3z"/><path class="st7" d="M370.8 426.1l-5.7-1.2 10.6-41.4 8.5 1.9-7.7 42zM337.2 385c-.6-2.3-3-3.7-5.3-3.1-2.3.6-3.7 3-3.1 5.3.6 2.3 3 3.7 5.3 3.1 2.4-.6 3.8-3 3.1-5.3z"/><path class="st7" d="M343.7 427l-5.6 1.5-9.4-41.6 8.4-2.3 12.3 40.9z"/><circle class="st7" cx="316.2" cy="402.5" r="3.5"/><path class="st7" d="M331.4 432.8l-4.2 2.1-14.2-31.1 6.2-3.1 16.4 30zM373.3 469.1l-6.2-4.7 37-46.2 9.3 6.9-33.9 48.6z"/><path class="st7" d="M328 432.3l5.7-5c.4 1 1.6 1.5 2.6 1.1.8-.3 1.3-1.2 1.2-2.1v-.4l5.5-3.2 5.2-1.2c.3.7 1.2 1 1.9.7.5-.2.8-.7.8-1.3l4.6.9 7-1.2c.1 1 1 1.7 2 1.6.7-.1 1.3-.5 1.6-1.2l9.2 5 1.3 1.2c.1 1.7.9 7.7 1.3 10.4 0 2.4 1.9 4.3 4.3 4.5 1.7.2 3.4-.6 4.3-2l4.7 6.3-12.2 29.7c-1.2 3.9-2.8 10.4-2.8 14.3v9.7H341v-9.9c.1-4.4-.9-8.8-2.8-12.7l-7.6-21.7c-1.2-4.6-1.5-5.5-1.5-8.3v-5.6c0-1.7-.4-3.4-1.1-4.9l-.9-2 .9-2.7z"/><path class="st4" d="M337.1 485.8h43.3v11.9h-43.3z"/><path class="st8" d="M331.7 496H386v194.3h-54.3z"/><path class="st9" d="M363.4 496H386v194.3h-22.6z"/><path class="st4" d="M337.8 509c0-2 1.6-3.6 3.6-3.6s3.6 1.6 3.6 3.6-1.6 3.6-3.6 3.6c-2-.1-3.6-1.7-3.6-3.6zM337.8 522.2c0-2 1.6-3.6 3.6-3.6s3.6 1.6 3.6 3.6-1.6 3.6-3.6 3.6c-2-.1-3.6-1.7-3.6-3.6z"/></g><g id="papers"><path class="st10" d="M229 686.8c-33.8-4.7-66.7-14.2-97.8-28.1 18.9-29.4 34.8-63.9 46.4-102.1 27.1 5 54.7 6.2 82.1 3.4-5.1 43.4-15.4 86-30.7 126.8z"/><path class="st11" d="M235.6 576.3c-17.7 0-35.3-1.6-52.7-4.7l.1-.9c21.4 3.8 43.1 5.3 64.8 4.4v.9c-4 .2-8.1.3-12.2.3zM238.7 585.2c-19.6 0-39.2-1.9-58.4-5.7l.2-.9c21.6 4.3 43.7 6.2 65.7 5.6v.9c-2.5.1-5 .1-7.5.1zM241.8 594.2c-21.6 0-43.1-2.3-64.1-6.8l.2-.9c21.9 4.7 44.3 7 66.6 6.8v.9h-2.7zM242.6 603c-22.8-.2-45.5-2.9-67.8-8.1l.2-.9c22.2 5.1 44.8 7.8 67.5 8v1zM240.6 611.9c-23.2-.6-46.2-3.7-68.6-9.3l.2-.8c22.4 5.6 45.4 8.7 68.4 9.3v.8zM238.5 620.6c-23.5-1-46.8-4.5-69.5-10.6l.2-.8c22.7 6 45.9 9.6 69.3 10.6v.8zM236.2 629.2c-23.8-1.4-47.4-5.4-70.4-11.9l.2-.8c22.9 6.5 46.4 10.5 70.1 11.9l.1.8zM233.8 637.8c-24.1-1.8-48-6.3-71.2-13.3l.3-.8c23.1 7 46.9 11.4 71 13.2l-.1.9zM231.2 646.2c-24.5-2.2-48.6-7.2-72-14.7l.3-.8c23.3 7.5 47.4 12.4 71.8 14.6l-.1.9zM228.6 654.6c-24.8-2.7-49.2-8.1-72.7-16.1l.3-.8c23.5 8 47.8 13.3 72.5 16l-.1.9zM225.8 662.9c-25.1-3.1-49.7-9-73.5-17.5l.3-.8c23.7 8.5 48.3 14.3 73.3 17.5l-.1.8zM222.8 671c-25.3-3.6-50.2-10-74.2-19l.3-.8c23.9 9 48.7 15.4 74 19l-.1.8z"/><path class="st12" d="M364.4 581c-15.4 25.7-34.9 48.6-57.8 67.9-38.6-18.1-72.1-43.9-99.7-74.1 22.2-7.7 43.2-20.5 61.7-37 27.8 20.2 60.2 35.8 95.8 43.2z"/><path class="st11" d="M224.3 581.8l-.3-.7c17.3-8 33.3-18.5 47.5-31.1l.5.6c-14.3 12.7-30.4 23.3-47.7 31.2zM230.4 587.6l-.3-.7c17.3-8.5 33.3-19.5 47.5-32.7l.5.6c-14.2 13.1-30.3 24.2-47.7 32.8zM236.7 593.2l-.4-.7c17.4-9.1 33.4-20.7 47.4-34.3l.5.6c-14 13.6-30 25.2-47.5 34.4zM243.2 598.6l-.4-.7c4.5-2.5 9-5.2 13.3-8l.4.6c-4.4 2.9-8.8 5.6-13.3 8.1zM249.8 603.9l-.4-.7c4.5-2.6 9-5.5 13.3-8.5l.4.6c-4.3 3-8.8 5.9-13.3 8.6zM256.5 609l-.4-.7c4.5-2.8 9-5.8 13.3-8.9l.5.6c-4.4 3.2-8.9 6.2-13.4 9zM263.5 613.9l-.4-.7c4.5-2.9 9-6.1 13.3-9.4l.5.6c-4.4 3.4-8.9 6.6-13.4 9.5zM270.5 618.7l-.4-.6c17.4-12 33.1-26.3 46.6-42.5l.6.5a237.04 237.04 0 01-46.8 42.6zM277.8 623.2l-.4-.6c17.3-12.6 32.9-27.5 46.4-44.2l.6.5c-13.6 16.8-29.2 31.7-46.6 44.3zM285.1 627.6l-.5-.6c17.3-13.2 32.8-28.6 46-45.9l.6.5c-13.2 17.3-28.7 32.8-46.1 46zM292.7 631.8l-.5-.6c17.2-13.8 32.6-29.8 45.7-47.5l.6.5a251.86 251.86 0 01-45.8 47.6zM300.3 635.8l-.5-.6c17.2-14.4 32.4-30.9 45.3-49.2l.6.5c-12.9 18.3-28.1 34.9-45.4 49.3zM280.1 602.5l-.2-.1c-7.8-4.8-15.5-10-22.8-15.5l.5-.6c7.3 5.5 14.9 10.6 22.6 15.3 10.9-8.7 21-18.3 30.1-28.8l.6.5c-9.3 10.6-19.4 20.3-30.4 29.1l-.4.1z"/><path class="st11" d="M282.5 597.8l-1.4 1.1c-2-1.2-4-2.5-6-3.8l1.4-1.1c2 1.3 4 2.6 6 3.8zM284.3 596.3l-1.4 1.1c-3.3-2-6.6-4-9.8-6.1l1.4-1.1c3.3 2.1 6.5 4.1 9.8 6.1zM288.9 592.3l-1.3 1.2c-3.8-2.2-7.6-4.5-11.3-6.9l1.4-1.1c3.6 2.4 7.3 4.6 11.2 6.8zM290.6 590.8l-1.3 1.2c-4.6-2.7-9.1-5.4-13.6-8.3l1.3-1.1c4.5 2.8 9 5.6 13.6 8.2zM295.1 586.7l-1.3 1.2c-3.2-1.8-6.4-3.6-9.6-5.5l1.3-1.2c3.1 1.9 6.3 3.7 9.6 5.5zM296.8 585c-.4.4-.9.8-1.3 1.2-6.5-3.5-12.7-7.2-18.8-11.2l1.3-1.1c6.1 3.9 12.3 7.6 18.8 11.1zM301.1 580.7l-1.3 1.3c-4.7-2.4-9.2-5-13.7-7.7l1.3-1.2c4.5 2.7 9 5.2 13.7 7.6zM302.7 579l-1.2 1.3c-4-2.1-7.9-4.2-11.8-6.5l1.3-1.2c3.8 2.2 7.7 4.3 11.7 6.4zM306.9 574.5l-1.2 1.3c-5.5-2.7-10.9-5.6-16.1-8.7l1.2-1.2c5.3 3 10.6 5.9 16.1 8.6zM308.5 572.7l-1.2 1.3c-7-3.4-13.8-7.1-20.4-11.1l1.2-1.2c6.6 4 13.4 7.6 20.4 11z"/><path class="st12" d="M583.9 623.5c-22.8 24.4-44 48.2-64.2 71.9-29.6-9.5-60.8-29.5-89.1-60.9 18.4-18.2 37.4-36.1 57.7-54.1 31.3 25.8 64.8 39.8 95.6 43.1z"/><path class="st11" d="M447 638.4l-.6-.6c15.2-15.1 30-29.2 45.2-43.1l.6.6c-15.2 13.9-30 28-45.2 43.1zM453.1 644.2l-.6-.6c15.3-15.4 30.2-29.8 45.6-44.1l.6.6c-15.4 14.2-30.3 28.6-45.6 44.1zM459.2 649.5l-.6-.6c15.4-15.7 30.5-30.4 46.1-45l.6.6c-15.6 14.7-30.7 29.3-46.1 45zM465.4 654.6l-.6-.6c15.5-16 30.7-31 46.5-45.9l.6.6c-15.8 14.9-30.9 29.9-46.5 45.9zM471.7 659.3l-.6-.6c15.6-16.2 30.9-31.6 46.9-46.9l.6.6c-16 15.4-31.3 30.7-46.9 46.9zM478 663.7l-.6-.6c15.6-16.5 31.1-32.1 47.2-47.8l.6.6c-16.2 15.7-31.6 31.4-47.2 47.8zM484.3 667.8l-.6-.6c15.8-16.8 31.3-32.8 47.6-48.8l.6.6c-16.3 16.1-31.9 32.1-47.6 48.8zM490.6 671.6l-.6-.6c15.8-17.1 31.5-33.3 47.9-49.7l.6.6c-16.4 16.4-32.1 32.7-47.9 49.7zM497 675.1l-.6-.6c15.9-17.3 31.6-33.9 48.2-50.7l.6.6c-16.7 16.8-32.4 33.4-48.2 50.7zM503.2 678.3l-.6-.6c15.9-17.6 31.8-34.5 48.5-51.7l.6.6c-16.7 17.2-32.5 34.1-48.5 51.7zM509.5 681.2l-.6-.6c16-17.9 32-35.1 48.8-52.6l.6.6c-16.8 17.4-32.8 34.6-48.8 52.6zM515.8 683.7l-.6-.6c15.8-17.9 32.3-35.9 49-53.6l.6.6c-16.7 17.6-33.2 35.7-49 53.6z"/><path class="st10" d="M450.7 715.7a447.2 447.2 0 01-98.1-50.7c25.8-22.6 49.2-50.7 68.9-83.2 27.7 11.5 56.7 19.4 86.3 23.7-13.8 39.2-33 76.3-57.1 110.2z"/><path class="st11" d="M492.3 617.5c-23.2-4.6-46-11.5-67.9-20.5l.3-.8c21.9 8.9 44.6 15.8 67.8 20.4l-.2.9zM488.8 625.5c-23.5-5.1-46.5-12.4-68.7-21.8l.4-.8c22.1 9.4 45 16.7 68.5 21.7l-.2.9zM485.2 633.5c-23.8-5.5-47.1-13.2-69.4-23.1l.4-.8c22.3 9.9 45.5 17.6 69.3 23.1l-.3.8zM481.5 641.3c-24.1-5.9-47.6-14.1-70.2-24.5l.4-.8c22.5 10.4 45.9 18.5 70 24.5l-.2.8zM477.7 649c-24.4-6.4-48.1-15-70.9-25.9l.4-.8c22.7 10.8 46.4 19.5 70.7 25.8l-.2.9zM473.7 656.5c-24.7-6.8-48.6-16-71.5-27.3l.4-.8c22.9 11.3 46.8 20.5 71.4 27.2l-.3.9zM469.6 664c-24.9-7.3-49.1-16.9-72.2-28.8l.4-.8c23 11.8 47.1 21.4 72 28.7l-.2.9zM465.4 671.3c-25.2-7.7-49.5-17.8-72.8-30.2l.4-.8c23.2 12.3 47.5 22.4 72.6 30.2l-.2.8zM461.1 678.6c-25.4-8.2-50-18.8-73.3-31.7l.4-.8c23.3 12.8 47.8 23.4 73.2 31.6l-.3.9zM456.6 685.7c-25.6-8.7-50.4-19.8-73.9-33.2l.4-.8c23.5 13.4 48.2 24.5 73.7 33.1l-.2.9zM452 692.6c-25.8-9.2-50.8-20.8-74.4-34.7l.5-.8c23.6 13.9 48.4 25.5 74.2 34.7l-.3.8zM447.4 699.5c-26.1-9.7-51.1-21.8-74.9-36.3l.5-.8c23.7 14.4 48.7 26.5 74.7 36.2l-.3.9z"/><path class="st10" d="M482.2 671.4c-32.4-9.7-63.3-23.8-91.8-42 20.9-26.5 39.2-58.5 53.8-94.7 25.4 8.9 52 14 78.9 15.2-9.3 43.9-23.2 84.9-40.9 121.5z"/><path class="st11" d="M510.2 564.2c-21.2-2.3-42.1-6.9-62.2-13.8l.3-.8c20.1 6.9 41 11.5 62.1 13.8l-.2.8zM507.9 572.9c-21.5-2.7-42.7-7.8-63.1-15.1l.3-.8c20.4 7.3 41.4 12.4 62.9 15l-.1.9zM505.4 581.6c-21.8-3.1-43.3-8.6-63.9-16.4l.3-.8c20.6 7.8 41.9 13.3 63.7 16.4l-.1.8zM502.8 590.2c-22.1-3.5-43.8-9.5-64.7-17.8l.3-.8c20.8 8.3 42.4 14.2 64.5 17.7l-.1.9zM500.1 598.6c-22.4-4-44.4-10.4-65.4-19.2l.3-.8c21 8.7 42.8 15.1 65.2 19.1l-.1.9zM497.2 607c-22.7-4.4-44.9-11.3-66.1-20.6l.4-.8c21.2 9.2 43.3 16.1 65.9 20.5l-.2.9zM494.3 615.3c-23-4.9-45.4-12.3-66.8-22l.4-.8c21.3 9.7 43.7 17.1 66.6 21.9l-.2.9zM491.2 623.4c-23.3-5.3-45.9-13.2-67.5-23.5l.4-.8c21.5 10.2 44.1 18.1 67.3 23.4l-.2.9zM488 631.4c-23.5-5.8-46.4-14.2-68.1-24.9l.4-.8c21.7 10.7 44.5 19.1 68 24.9l-.3.8zM484.7 639.3c-23.8-6.3-46.8-15.2-68.7-26.5l.4-.8c21.8 11.2 44.8 20.1 68.6 26.4l-.3.9zM481.2 647.2c-24.1-6.8-47.3-16.2-69.3-28l.4-.8c22 11.8 45.2 21.1 69.2 27.9l-.3.9zM477.7 654.8c-24.3-7.3-47.7-17.2-69.9-29.5l.4-.8c22.1 12.3 45.5 22.2 69.8 29.5l-.3.8z"/><path class="st12" d="M500.4 685.9c-33.4-5-64.7-19.1-90.6-40.8 22.7-17.3 43.3-40.9 59.7-68.7 23.6 9.1 49.2 11.4 74 6.8-8.8 36.4-23.4 71-43.1 102.7z"/><path class="st11" d="M514.3 639.7c-22.8-1.3-45-7.3-65.2-17.8l.3-.7c20.1 10.4 42.3 16.5 64.9 17.8v.7zM511 646.5c-23.2-1.8-45.7-8.5-66.1-19.7l.4-.7c20.3 11.1 42.7 17.8 65.8 19.6l-.1.8zM507.5 653.3c-23.6-2.4-46.4-9.8-66.9-21.6l.4-.6c20.4 11.8 43.1 19.2 66.6 21.5l-.1.7zM503.9 659.9c-24-3-47-11-67.7-23.6l.4-.6c20.5 12.5 43.5 20.5 67.4 23.5l-.1.7zM500.1 666.5c-24.4-3.6-47.7-12.3-68.4-25.6l.4-.6c20.6 13.2 43.8 21.9 68.1 25.5l-.1.7zM496.3 672.9c-24.7-4.2-48.3-13.7-69-27.7l.4-.6c20.7 14 44.1 23.4 68.8 27.6l-.2.7z"/><path class="st13" d="M507 598.5c-2.2-1.4-4.7-2.3-7.3-2.6-10-1.3-21.5 3.4-26.6 11.4s-1.2 17.7 9.8 20.7 24.1-3.5 28.2-13.1c-6.5-.4-13-1.3-19.4-2.6 5.3-4.4 10.4-9 15.3-13.8z"/><path class="st13" d="M512.2 596.7c-4.7 5.1-9.7 9.8-15 14.4 6.4 1 12.9 1.7 19.4 1.8 2.8-7.1.6-13.1-4.4-16.2z"/><path class="st12" d="M658.1 599.5c-22.4 24-43.4 47.5-63.6 71.1-26-14-52.7-39.8-75.8-77.6 18-17.7 36.6-35.1 56.3-52.3 26.4 31.9 55.5 51.4 83.1 58.8z"/><path class="st11" d="M533.3 599.2l-.6-.6c14.9-14.8 29.4-28.5 44.1-41.8l.6.6c-14.8 13.3-29.2 27-44.1 41.8zM538.4 606.2l-.6-.6c15-15 29.6-29 44.6-42.8l.6.6c-15 13.8-29.6 27.8-44.6 42.8zM543.5 612.8l-.6-.6c15.1-15.3 29.9-29.6 45.1-43.8l.6.6c-15.2 14.2-30 28.5-45.1 43.8zM548.7 619.2l-.6-.6c15.2-15.6 30.1-30.3 45.5-44.8l.6.6c-15.4 14.5-30.2 29.1-45.5 44.8zM554 625.1l-.6-.6c15.3-15.9 30.4-30.9 46-45.8l.6.6c-15.6 14.9-30.7 29.9-46 45.8zM559.3 630.7l-.6-.6c15.4-16.2 30.6-31.5 46.4-46.7l.6.6c-15.8 15.2-31 30.5-46.4 46.7zM564.7 636l-.6-.6c15.5-16.5 30.8-32.1 46.8-47.7l.6.6c-16 15.5-31.3 31.2-46.8 47.7zM570.1 640.9l-.6-.6c15.6-16.8 31-32.8 47.1-48.8l.6.6c-16.1 16.1-31.5 32-47.1 48.8zM575.6 645.5l-.6-.6c15.7-17.1 31.2-33.4 47.5-49.8l.6.6c-16.4 16.4-31.9 32.7-47.5 49.8zM581 649.7l-.6-.6c15.8-17.4 31.4-34 47.8-50.8l.6.6c-16.4 16.8-32 33.4-47.8 50.8zM586.5 653.6l-.6-.6c15.8-17.7 31.6-34.7 48.1-51.8l.6.6c-16.6 17.1-32.3 34.1-48.1 51.8zM592 657.2l-.6-.6c15.6-17.7 31.9-35.5 48.5-52.9l.6.6c-16.6 17.3-32.9 35.1-48.5 52.9z"/><path class="st12" d="M112.2 671.2C73.6 667.3 35.8 657.7 0 642.7c17.9-24.5 33.1-53 45-84.7 26.6 2.3 53.4 1 79.7-3.8.2 39.4-3.9 78.6-12.5 117z"/><path class="st11" d="M86.5 571.5v-.9c9.4-.2 18.9-.8 28.3-1.8l.1.8c-9.4 1.1-18.9 1.7-28.4 1.9zM86.4 579.2h-1.3v-.8c9.7.1 19.5-.4 29.2-1.2l.1.8c-9.3.7-18.7 1.2-28 1.2zM92.3 586.8c-2.9 0-5.9 0-8.8-.1v-.8c10 .3 20.1.1 30-.6v.8c-7 .5-14.1.7-21.2.7zM98.2 594.5c-5.5 0-10.9-.1-16.3-.4v-.9c10.2.5 20.6.5 30.9.1v.9c-4.8.3-9.8.3-14.6.3zM104 602.4c-8 0-16-.3-23.9-.9l.1-.9c10.5.8 21.2 1 31.7.8v.8c-2.6.2-5.3.2-7.9.2zM109.6 610.3c-24.4 0-48.7-2.7-72.5-7.8l.2-.8c24.2 5.3 48.8 7.9 73.5 7.8v.9l-1.2-.1zM109.7 618.2c-25.4-.4-50.7-3.6-75.5-9.5l.2-.8c24.7 5.9 49.9 9.1 75.3 9.5v.8zM108.4 626c-26.1-.9-52-4.7-77.2-11.3l.2-.8c25.2 6.6 51 10.4 77 11.3v.8zM107 633.8c-26.7-1.4-53.2-5.8-78.9-13.1l.2-.8C54 627.2 80.4 631.5 107 633v.8zM105.5 641.5c-27.3-2-54.3-7-80.6-14.9l.2-.8c26.1 7.9 53.1 12.9 80.4 14.9v.8zM103.9 649.1c-27.9-2.5-55.5-8.1-82.2-16.7l.3-.8c26.6 8.6 54.1 14.2 82 16.7l-.1.8zM102.1 656.6c-28.5-3-56.6-9.3-83.8-18.6l.3-.8c27.1 9.3 55.1 15.5 83.6 18.6l-.1.8z"/><path class="st13" d="M75.4 600.5c-11.6-1-23.2-2.6-34.7-4.8 3.6-8.4 7-17.1 10.1-26 10.4 1 20.9 1.5 31.3 1.4-1.9 10.1-4.1 19.9-6.7 29.4z"/><path class="st10" d="M151.8 714.7c-29.6-13.7-58.7-35.5-83.9-64.5 31.9-17.9 61.9-39.2 91.3-62.4 27 18.8 56 30 83.3 33.1-28.9 33.4-58.5 64.9-90.7 93.8z"/><path class="st11" d="M223.1 630.7c-21.7-4.7-44.2-14.5-64.7-28.2l.5-.7c20.5 13.7 42.8 23.4 64.4 28.1l-.2.8zM217 637.2c-22.2-5.4-44-15.4-64.8-29.9l.5-.7c20.8 14.4 42.5 24.4 64.5 29.7l-.2.9zM210.9 643.8c-22.3-6-44.1-16.6-64.9-31.5l.5-.7c20.7 14.9 42.4 25.5 64.6 31.4l-.2.8zM204.7 650.2c-22.4-6.5-44.3-17.7-64.9-33.2l.5-.7c20.6 15.4 42.4 26.5 64.7 33l-.3.9zM198.5 656.6c-22.5-7.1-44.4-18.8-65-34.8l.5-.7c20.5 15.9 42.3 27.6 64.7 34.7l-.2.8zM192.2 663c-22.7-7.7-44.5-20-65-36.5l.6-.7c20.4 16.4 42.2 28.7 64.7 36.3l-.3.9zM185.9 669.2c-22.8-8.3-44.7-21.1-65.1-38.2l.6-.7c20.3 17 42.2 29.8 64.8 38l-.3.9zM179.5 675.4c-22.9-8.9-44.8-22.2-65.1-39.8l.6-.7c20.3 17.5 42.1 30.9 64.8 39.7l-.3.8zM173.1 681.6c-23-9.5-44.9-23.4-65.1-41.5l.6-.7c20.2 18 42 32 64.8 41.4l-.3.8zM166.6 687.6c-23.1-10-45-24.6-65.1-43.2l.6-.7c20.1 18.6 41.9 33.1 64.9 43.1l-.4.8zM160.1 693.6C137 683 115 667.9 95 648.6l.6-.6c20 19.1 41.8 34.2 64.9 44.8l-.4.8zM153.5 699.6c-23.3-11.2-45.2-27-65.1-46.7l.6-.6c19.9 19.7 41.7 35.3 64.9 46.5l-.4.8z"/><path class="st10" d="M630.2 726.5c-29.5-13.7-58.6-35.5-83.8-64.7 31.9-17.9 61.9-39.1 91.3-62.3 27 18.8 56 30.1 83.3 33.2-28.8 33.4-58.6 64.8-90.8 93.8z"/><path class="st11" d="M701.7 642.5c-21.7-4.8-44.1-14.5-64.7-28.3l.5-.7c20.5 13.7 42.8 23.4 64.4 28.2l-.2.8zM695.6 649.1c-22.2-5.4-44-15.5-64.8-29.9l.5-.7c20.7 14.4 42.4 24.4 64.5 29.8l-.2.8zM689.4 655.6c-22.3-6-44.1-16.6-64.8-31.6l.5-.7c20.7 14.9 42.4 25.5 64.6 31.5l-.3.8zM683.2 662c-22.4-6.6-44.2-17.8-64.9-33.2l.5-.7c20.6 15.4 42.3 26.6 64.6 33.1l-.2.8zM677 668.4c-22.5-7.1-44.4-18.9-65-34.9l.5-.7c20.5 16 42.3 27.7 64.7 34.8l-.2.8zM670.7 674.8c-22.6-7.7-44.5-20-65-36.6l.6-.7c20.4 16.5 42.2 28.7 64.7 36.4l-.3.9zM664.4 681c-22.8-8.3-44.6-21.2-65-38.2l.6-.7c20.3 17 42.1 29.8 64.8 38.1l-.4.8zM658 687.2c-22.9-8.9-44.7-22.3-65.1-39.9l.6-.7c20.2 17.5 42 30.9 64.8 39.8l-.3.8zM651.6 693.3c-23-9.5-44.8-23.5-65.1-41.6l.6-.7c20.1 18.1 42 32 64.8 41.5l-.3.8zM645.1 699.4c-23.1-10.1-45-24.6-65.1-43.3l.6-.7c20 18.6 41.9 33.1 64.8 43.2l-.3.8zM638.6 705.4c-23.2-10.7-45-25.8-65.1-45l.6-.6c20 19.1 41.8 34.2 64.8 44.8l-.3.8zM632 711.3c-23.2-11.3-45.1-27-65-46.8l.6-.6c19.8 19.7 41.7 35.4 64.8 46.6l-.4.8z"/><path class="st4" d="M79.2 722.8C47.5 710 24.6 695 9.6 676.3c43.5-43.5 73.8-75.7 88.5-99.7 14.3 21.8 36.8 40.5 68.2 57.5-13.6 21.2-43.3 49.7-87.1 88.7z"/><path class="st11" d="M150.5 636.2c-23.1-13.3-40.4-27.6-52.9-43.6l.8-.6c12.5 15.9 29.7 30 52.7 43.3l-.6.9zM146.7 641.2c-23.1-13.2-40.5-27.2-53.1-43.1l.8-.6c12.5 15.7 29.8 29.7 52.8 42.8l-.5.9zM142.4 646.3c-23.1-13-40.6-26.9-53.2-42.6l.8-.6c12.6 15.6 29.9 29.4 53 42.3l-.6.9zM137.7 651.8c-23.2-12.8-40.6-26.5-53.4-42l.8-.6c12.6 15.4 30 29.1 53.1 41.8l-.5.8zM132.5 657.4c-23.2-12.5-40.7-26.1-53.5-41.5l.8-.6c12.7 15.3 30.1 28.8 53.2 41.2l-.5.9zM127 663.3c-23.2-12.3-40.8-25.7-53.6-40.9l.8-.6c12.7 15.1 30.1 28.4 53.2 40.7l-.4.8zM120.9 669.5c-23.3-12.1-40.8-25.3-53.7-40.3l.8-.6c12.8 14.9 30.2 28 53.3 40.1l-.4.8zM114.4 675.9C91.1 664 73.6 651 60.7 636.2l.7-.6c12.8 14.8 30.2 27.7 53.4 39.5l-.4.8zM107.5 682.6c-23.3-11.6-40.9-24.4-53.8-39.1l.7-.7c12.8 14.6 30.3 27.3 53.5 38.9l-.4.9zM100.2 689.6c-23.3-11.4-40.9-24-53.8-38.4l.7-.7c12.8 14.4 30.3 26.9 53.5 38.2l-.4.9zM92.4 696.8c-23.3-11.1-40.9-23.5-53.8-37.8l.7-.7c12.8 14.2 30.3 26.4 53.5 37.5l-.4 1zM84.3 704.4c-23.3-10.9-40.9-23-53.8-37.1l.7-.7c12.8 14 30.3 26 53.5 36.9l-.4.9z"/><path class="st14" d="M488.1 633.8c-29.8 20-64 32.5-99.7 36.3-17.8-27.8-33.7-54.6-48.3-80.1 30.9-4.3 60.2-16.2 85.3-34.7 18.8 25.9 39.6 52.2 62.7 78.5z"/><path class="st11" d="M356 597.3l-.1-.8c23.8-4.5 46.5-13.6 66.9-26.7l.5.7c-20.6 13.1-43.4 22.2-67.3 26.8zM359.1 602.7l-.1-.8c24-4.5 47-13.6 67.6-26.7l.5.7c-20.8 13.2-43.8 22.3-68 26.8zM362.4 608.2l-.1-.8c24.3-4.5 47.4-13.5 68.3-26.7l.4.7c-21 13.2-44.2 22.3-68.6 26.8zM365.7 613.6l-.1-.8c24.5-4.4 47.9-13.5 69-26.7l.4.7c-21.2 13.2-44.7 22.4-69.3 26.8zM369 619.2l-.1-.8c24.8-4.4 48.4-13.5 69.8-26.8l.4.7c-21.4 13.3-45.2 22.5-70.1 26.9zM372.4 624.7l-.1-.8c25-4.4 48.9-13.5 70.5-26.8l.4.7c-21.6 13.3-45.7 22.5-70.8 26.9zM375.9 630.2l-.1-.8c25.3-4.4 49.5-13.5 71.3-26.9l.4.7c-22 13.5-46.3 22.6-71.6 27zM379.4 635.8l-.1-.8c25.5-4.3 50-13.5 72.1-27l.4.7c-22.3 13.6-46.8 22.8-72.4 27.1zM382.9 641.5l-.1-.8c25.8-4.4 50.5-13.6 72.9-27.1l.4.7c-22.5 13.5-47.3 22.8-73.2 27.2zM386.5 647.1l-.1-.8c26.1-4.4 51.1-13.6 73.7-27.3l.4.7c-22.8 13.7-47.9 23-74 27.4zM390.1 652.8l-.1-.8c26.3-4.4 51.6-13.7 74.5-27.4l.4.7c-23 13.8-48.3 23.1-74.8 27.5zM393.8 658.5l-.1-.8c26.6-4.4 52.2-13.8 75.4-27.6l.4.7c-23.3 13.9-49 23.3-75.7 27.7z"/><path class="st4" d="M660.2 655.1c-23.1 25.5-46.5 49.7-70.9 72.4-37.2-16.2-75.3-45.5-107.3-87 24.1-12.5 47.6-26.2 70.4-41.1 34.8 31.3 73.1 50.1 107.8 55.7z"/><path class="st11" d="M501.5 649.7l-.5-.8c17.6-10 35.5-21.3 54.8-34.3l.5.8c-19.2 13-37.2 24.3-54.8 34.3zM508.6 657.3l-.5-.8c17.8-10.6 35.8-22.4 55.1-36l.5.7c-19.3 13.8-37.3 25.5-55.1 36.1zM515.8 664.6l-.5-.8c17.9-11.2 36-23.5 55.4-37.6l.5.7c-19.4 14.3-37.5 26.5-55.4 37.7zM523.1 671.5l-.5-.8c18-11.7 36.2-24.5 55.6-39.3l.5.7c-19.4 14.9-37.6 27.7-55.6 39.4zM530.5 678.1l-.5-.8c18.1-12.3 36.3-25.7 55.7-40.9l.6.7c-19.4 15.3-37.7 28.7-55.8 41zM538 684.3l-.5-.7c18.2-12.8 36.4-26.8 55.8-42.6l.6.7c-19.5 15.8-37.7 29.7-55.9 42.6zM545.5 690.1l-.5-.7c18.2-13.4 36.5-27.9 55.8-44.3l.6.7c-19.3 16.4-37.6 30.9-55.9 44.3zM553.2 695.5l-.5-.7c18.2-13.9 36.5-29 55.8-46l.6.7c-19.4 17-37.6 32.1-55.9 46zM560.9 700.6l-.6-.7c18.3-14.5 36.5-30.1 55.8-47.7l.6.7c-19.3 17.6-37.5 33.2-55.8 47.7zM568.6 705.3l-.6-.7c18.2-15.1 36.4-31.2 55.6-49.3l.6.7c-19.1 18.1-37.3 34.3-55.6 49.3zM576.3 709.7l-.6-.7c18.2-15.6 36.4-32.3 55.4-51l.6.7c-19 18.6-37.2 35.3-55.4 51zM584 713.7l-.6-.7c18.2-16.2 36.2-33.5 55.2-52.7l.6.6c-18.9 19.3-37 36.5-55.2 52.8z"/><path class="st14" d="M505.9 678.4c-20.2 24.7-45.3 44.9-73.8 59.2-31.6-22.9-58.9-51.1-80.9-83.4 25.3-3.7 49.4-13.6 70-28.8 23.4 22.1 51.9 41 84.7 53z"/><path class="st11" d="M399.4 651.6l-.3-.7c7.9-3.8 15.5-8.2 22.7-13.2l.4.6c-7.3 5.1-14.9 9.5-22.8 13.3zM404.5 656.8l-.3-.7c8-4 15.6-8.7 22.8-13.8l.4.6c-7.3 5.2-14.9 9.9-22.9 13.9zM409.7 662l-.4-.7c8-4.2 15.6-9.1 22.9-14.5l.5.6c-7.3 5.4-15 10.3-23 14.6zM415.1 667l-.4-.7c8-4.5 15.7-9.5 23-15.1l.5.6c-7.3 5.6-15.1 10.7-23.1 15.2zM420.6 671.9l-.4-.7c8-4.7 15.7-10 23-15.8l.5.6c-7.3 5.9-15 11.2-23.1 15.9zM393.3 692.5l-.3-.7c20.4-7.4 39.3-18.4 55.9-32.3l.5.6c-16.6 14-35.7 25-56.1 32.4zM399 698.2l-.3-.7c20.5-8 39.5-19.5 56.2-33.9l.5.6c-16.8 14.4-35.8 25.9-56.4 34zM404.8 703.6l-.3-.7c20.7-8.6 39.7-20.6 56.4-35.5l.5.6c-16.7 14.9-35.9 27-56.6 35.6zM410.8 709l-.3-.7c20.8-9.1 39.9-21.7 56.5-37.2l.5.5c-16.7 15.6-35.8 28.2-56.7 37.4zM417 714.2l-.3-.7c20.9-9.7 40.1-22.9 56.6-38.9l.5.5c-16.6 16.1-35.8 29.3-56.8 39.1zM423.3 719.3l-.3-.7c21-10.3 40.2-24.1 56.8-40.7l.5.5c-16.7 16.8-35.9 30.6-57 40.9zM429.8 724.3l-.4-.7c21.1-10.9 40.3-25.3 56.8-42.4l.5.5c-16.5 17.2-35.7 31.6-56.9 42.6z"/><path class="st13" d="M416.6 673.5c-9.1 5-18.7 9.3-28.5 12.7-7.2-7.6-13.9-15.5-20.2-23.6 9.5-2.3 18.8-5.6 27.7-9.6 6.6 7 13.6 13.9 21 20.5z"/><path class="st4" d="M235.6 719.9c-33.4-7.1-65.8-17.8-96.8-32 19.2-30.2 40.1-63.5 61.9-100.1 33 6.8 66.7 9.8 100.4 8.8-22.1 44.6-44.3 85.6-65.5 123.3z"/><path class="st11" d="M282.4 611.8c-26-.6-51.9-3.6-77.3-8.8l.2-1c25.4 5.2 51.2 8.2 77.2 8.8l-.1 1zM277.8 620.7c-26-1.1-51.9-4.4-77.3-10.1l.2-1c25.3 5.6 51.1 9 77.1 10.1v1zM273.2 629.5c-26-1.5-51.8-5.3-77.2-11.3l.2-1c25.3 6 51.1 9.8 77 11.3v1zM212.1 630.2c-6.8-1.4-13.7-3-20.5-4.7l.2-1c6.8 1.7 13.7 3.3 20.4 4.7l-.1 1zM207.6 637.9c-6.8-1.5-13.6-3.2-20.4-5l.3-1c6.8 1.8 13.6 3.5 20.4 5l-.3 1zM203.1 645.4c-6.8-1.6-13.6-3.4-20.4-5.4l.3-.9c6.7 1.9 13.6 3.7 20.3 5.3l-.2 1zM198.7 652.9c-6.7-1.7-13.6-3.6-20.3-5.7l.3-.9c6.7 2 13.5 4 20.2 5.7l-.2.9zM250.4 671.8c-25.9-3.6-51.4-9.5-76.3-17.6l.3-.9c24.8 8 50.3 13.9 76.1 17.5l-.1 1zM245.9 680c-25.9-4.1-51.3-10.4-76.1-18.8l.3-.9c24.7 8.4 50.1 14.7 75.9 18.8l-.1.9zM241.4 688c-25.8-4.5-51.2-11.2-75.8-20l.3-.9c24.6 8.8 49.9 15.5 75.7 20l-.2.9zM236.9 696c-25.7-4.9-51-12-75.6-21.2l.3-.9c24.5 9.2 49.7 16.3 75.4 21.2l-.1.9zM232.4 703.9c-25.7-5.3-50.9-12.9-75.3-22.4l.4-.9c24.4 9.6 49.5 17.1 75.1 22.4l-.2.9zM254.5 664c-17.2-2.2-34.3-5.3-51.1-9.4l-.6-.2.3-.6c4.7-7.9 9.3-15.8 13.7-23.4l.8.5c-4.3 7.5-8.8 15.1-13.4 22.8 16.6 4 33.4 7.1 50.4 9.3l-.1 1zM255.4 639.9c-.2 1-.3 2-.5 3 2.7-1.4 5.3-2.9 8-4.4-2.3-.5-4.7-1-7-1.6-.2 1-.3 2-.5 3z"/><path class="st11" d="M208.2 653.2v-1c7.9-.3 16-.9 23.9-1.8 2.4-2.8 4.9-5.7 7.2-8.5l.1-.1h.2c7.1-.9 14.3-2.1 21.3-3.4l.2 1c-7 1.3-14.1 2.5-21.2 3.4-2.4 2.8-4.8 5.7-7.2 8.5l-.1.2h-.2c-8.1.7-16.2 1.3-24.2 1.7z"/><path class="st4" d="M688.1 674.8c-32.4 16-67.3 23.7-101.3 22.8-19.3-32.9-36.4-63.3-53.2-90.8 32 .8 63.6-6.6 92-21.3 18.3 27.7 38.6 57.9 62.5 89.3z"/><path class="st11" d="M550.2 616.6v-.8c24.6-.8 48.9-6.4 71.4-16.4l.3.8c-22.5 10-46.9 15.6-71.7 16.4zM553.8 622.5v-.8c24.7-.8 49.1-6.4 71.7-16.4l.3.8c-22.7 10-47.1 15.6-72 16.4zM557.4 628.5v-.8c24.9-.8 49.3-6.4 72.1-16.5l.3.8c-22.9 10.1-47.5 15.7-72.4 16.5zM561 634.5v-.8c6.5-.2 13-.7 19.4-1.5l.1.8c-6.5.9-13 1.4-19.5 1.5zM564.6 640.7v-.8c6.5-.2 13.1-.7 19.5-1.6l.1.8c-6.5.9-13 1.4-19.6 1.6zM568.3 646.9v-.8c6.6-.2 13.1-.7 19.7-1.6l.1.8c-6.6.9-13.2 1.4-19.8 1.6zM572 653.2v-.8c6.6-.2 13.2-.7 19.8-1.6l.1.8c-6.7.9-13.3 1.4-19.9 1.6zM575.8 659.6v-.8c25.6-.8 50.9-6.5 74.4-16.7l.3.8c-23.6 10.2-49 15.9-74.7 16.7zM579.6 666v-.8c25.8-.8 51.2-6.5 74.9-16.8l.3.8c-23.7 10.3-49.3 16-75.2 16.8zM583.4 672.5v-.8c26-.8 51.7-6.6 75.5-16.9l.3.8c-23.9 10.4-49.6 16.1-75.8 16.9zM587.3 679.2v-.8c26.2-.8 52.1-6.6 76.2-17.1l.3.8c-24.2 10.4-50.1 16.2-76.5 17.1zM591.3 685.8v-.8c26.5-.9 52.5-6.7 76.9-17.2l.3.8c-24.4 10.5-50.6 16.3-77.2 17.2zM596.6 651.3l-.2-.2c-3.5-5.7-7-11.4-10.4-17l-1.3-2.1.7-.4 1.3 2.1c3.3 5.5 6.7 11 10.2 16.7 16.8-2.7 33.2-7.5 48.9-14.2l.3.8c-15.8 6.8-32.4 11.6-49.3 14.3h-.2z"/><path class="st11" d="M602.9 642.2c-1.5.3-2.9.6-4.4.9l3.3 5.3c1.5-.3 2.9-.6 4.4-.9-1.1-1.8-2.2-3.5-3.3-5.3zM609.8 638.7c-1.5.4-2.9.7-4.3 1.1l4.4 7c1.5-.3 2.9-.7 4.4-1.1l-4.5-7zM613.2 629.4c-1.4.4-2.8.8-4.3 1.2 2.9 4.7 5.9 9.4 9 14.1 1.5-.4 2.9-.8 4.4-1.2-3.1-4.8-6.2-9.5-9.1-14.1zM623.1 630.1c-1.4.5-2.8 1-4.3 1.4 2.3 3.6 4.6 7.2 7 10.8 1.4-.5 2.9-.9 4.3-1.4-2.3-3.6-4.7-7.2-7-10.8zM627 621.3c-1.4.5-2.8 1.1-4.2 1.6 3.6 5.5 7.2 11.1 11 16.8 1.4-.5 2.9-1 4.3-1.6-3.9-5.7-7.5-11.3-11.1-16.8z"/><path class="st4" d="M331.8 712c-32.4-19.8-63.5-39.8-94.3-59.9 27.9-16.7 57.1-42.6 84.6-77.7 30.6 10 60.9 20 91.9 29.8-24.8 44.8-53.2 81-82.2 107.8z"/><path class="st11" d="M394.7 615.6c-23.7-8.3-47.4-16.9-70.4-25.1l-1-.4.3-.9 1 .4c23 8.3 46.7 16.8 70.4 25.1l-.3.9zM389.3 624.2c-24.8-9.2-49.7-18.7-71.7-27.1l.4-.9c22 8.4 46.9 17.9 71.7 27.1l-.4.9zM383.8 632.5c-24-9.3-47.8-18.9-72-28.7l.4-.9c24.3 9.8 48 19.3 72 28.7l-.4.9zM378.2 640.5c-24.9-10.2-49.4-20.5-72.3-30.3l.4-.9c23 9.7 47.5 20.1 72.3 30.3l-.4.9zM372.5 648.3c-25.5-11-50.8-22.2-72.5-31.9l.4-.9c21.7 9.7 47 20.9 72.5 31.9l-.4.9zM366.8 655.8c-25-11.2-49.7-22.7-72.7-33.5l.4-.9c23 10.8 47.8 22.3 72.7 33.5l-.4.9zM361 663.1c-25.4-12-50-23.9-72.9-35.1l.4-.9c22.8 11.2 47.4 23.1 72.8 35.1l-.3.9zM355.2 670.1c-26-12.7-51.4-25.7-72.9-36.7l.5-.9c21.5 11 47 24 72.9 36.7l-.5.9zM349.3 676.9c-26.4-13.5-51.7-27-73-38.3l.5-.9c21.3 11.4 46.6 24.8 73 38.3l-.5.9zM343.4 683.3c-26.9-14.4-53.1-28.9-73-40l.5-.8c19.8 11.1 46.1 25.6 73 40l-.5.8zM337.4 689.6c-27.2-15.1-53.3-30.2-73-41.6l.5-.8c19.7 11.4 45.8 26.5 72.9 41.6l-.4.8zM331.4 695.5c-21.5-12.4-44-25.7-72.9-43.2l.5-.8c28.9 17.5 51.4 30.8 72.9 43.2l-.5.8z"/></g></g></g></g></g></svg>